<svg width="26" height="26" viewBox="0 0 26 26" fill="none" xmlns="http://www.w3.org/2000/svg">
<path fill-rule="evenodd" clip-rule="evenodd" d="M15.7931 2.14066C16.8145 1.11924 18.1998 0.54541 19.6443 0.54541C22.6524 0.54541 25.0909 2.9839 25.0909 5.99193C25.0909 7.43643 24.517 8.82178 23.4956 9.8432L18.3058 15.033L17.1487 13.876L22.3385 8.68611C23.0531 7.97157 23.4545 7.00244 23.4545 5.99193C23.4545 3.88764 21.7486 2.18177 19.6443 2.18177C18.6338 2.18177 17.6647 2.5832 16.9502 3.29774L11.7603 8.48759L10.6032 7.3305L15.7931 2.14066ZM18.3058 8.48759L8.48759 18.3058L7.3305 17.1487L17.1487 7.3305L18.3058 8.48759ZM8.48759 11.7603L3.29774 16.9502C2.5832 17.6647 2.18177 18.6338 2.18177 19.6443C2.18177 21.7486 3.88764 23.4545 5.99193 23.4545C7.00244 23.4545 7.97157 23.0531 8.68611 22.3385L13.876 17.1487L15.033 18.3058L9.84319 23.4956C8.82177 24.517 7.43643 25.0909 5.99193 25.0909C2.9839 25.0909 0.54541 22.6524 0.54541 19.6443C0.54541 18.1998 1.11924 16.8145 2.14066 15.7931L7.3305 10.6032L8.48759 11.7603Z" fill="#1C6BA4"/>
</svg>
