<svg width="21" height="22" viewBox="0 0 21 22" fill="none" xmlns="http://www.w3.org/2000/svg">
<g clip-path="url(#clip0_133_392)">
<path d="M14.6764 0.510509C14.6318 0.460634 13.024 0.530197 11.6248 2.04876C10.2257 3.56601 10.441 5.30639 10.4725 5.35101C10.504 5.39564 12.4675 5.4652 13.7209 3.69988C14.9743 1.93457 14.721 0.561697 14.6764 0.510509ZM19.026 15.9101C18.963 15.7841 15.9745 14.2904 16.2527 11.4187C16.531 8.54564 18.4511 7.75814 18.4813 7.67282C18.5115 7.58751 17.6978 6.63595 16.8355 6.15426C16.2023 5.81465 15.5016 5.62008 14.784 5.58464C14.6423 5.5807 14.1501 5.45995 13.1381 5.73689C12.4714 5.91932 10.9686 6.50995 10.5551 6.53357C10.1404 6.5572 8.90665 5.84845 7.57971 5.66076C6.73052 5.4967 5.83015 5.8327 5.18571 6.09126C4.54259 6.34851 3.31934 7.08089 2.46359 9.02732C1.60784 10.9724 2.0554 14.0542 2.37565 15.0123C2.6959 15.9691 3.19596 17.5376 4.04646 18.6821C4.80246 19.9736 5.80521 20.87 6.2239 21.1745C6.64259 21.479 7.82384 21.6811 8.64284 21.2625C9.30171 20.8582 10.4908 20.6259 10.9607 20.643C11.4293 20.66 12.3533 20.8451 13.2996 21.3504C14.049 21.6089 14.7578 21.5013 15.4678 21.2126C16.1779 20.9225 17.2056 19.8226 18.4052 17.5927C18.8606 16.5558 19.068 15.9954 19.026 15.9101Z" fill="black"/>
<path d="M14.6764 0.510509C14.6318 0.460634 13.024 0.530197 11.6248 2.04876C10.2257 3.56601 10.441 5.30639 10.4725 5.35101C10.504 5.39564 12.4675 5.4652 13.7209 3.69988C14.9743 1.93457 14.721 0.561697 14.6764 0.510509ZM19.026 15.9101C18.963 15.7841 15.9745 14.2904 16.2527 11.4187C16.531 8.54564 18.4511 7.75814 18.4813 7.67282C18.5115 7.58751 17.6978 6.63595 16.8355 6.15426C16.2023 5.81465 15.5016 5.62008 14.784 5.58464C14.6423 5.5807 14.1501 5.45995 13.1381 5.73689C12.4714 5.91932 10.9686 6.50995 10.5551 6.53357C10.1404 6.5572 8.90665 5.84845 7.57971 5.66076C6.73052 5.4967 5.83015 5.8327 5.18571 6.09126C4.54259 6.34851 3.31934 7.08089 2.46359 9.02732C1.60784 10.9724 2.0554 14.0542 2.37565 15.0123C2.6959 15.9691 3.19596 17.5376 4.04646 18.6821C4.80246 19.9736 5.80521 20.87 6.2239 21.1745C6.64259 21.479 7.82384 21.6811 8.64284 21.2625C9.30171 20.8582 10.4908 20.6259 10.9607 20.643C11.4293 20.66 12.3533 20.8451 13.2996 21.3504C14.049 21.6089 14.7578 21.5013 15.4678 21.2126C16.1779 20.9225 17.2056 19.8226 18.4052 17.5927C18.8606 16.5558 19.068 15.9954 19.026 15.9101Z" fill="black"/>
</g>
<defs>
<clipPath id="clip0_133_392">
<rect width="21" height="21" fill="white" transform="translate(0 0.5)"/>
</clipPath>
</defs>
</svg>
