<svg width="32" height="32" viewBox="0 0 32 32" fill="none" xmlns="http://www.w3.org/2000/svg">
<path d="M4 18C4 18.3536 4.13132 18.6566 4.41416 18.9192L12.2731 26.6166C12.4953 26.8388 12.7782 26.96 13.1115 26.96C13.7782 26.96 14.3136 26.4347 14.3136 25.7579C14.3136 25.4246 14.1722 25.1316 13.9499 24.8993L6.86882 18L13.9499 11.1007C14.1722 10.8684 14.3136 10.5653 14.3136 10.2421C14.3136 9.56528 13.7782 9.04001 13.1115 9.04001C12.7782 9.04001 12.4953 9.16123 12.2731 9.38346L4.41416 17.0707C4.13132 17.3434 4 17.6465 4 18Z" fill="#1A4563"/>
</svg>
