<svg width="338" height="53" viewBox="0 0 338 53" fill="none" xmlns="http://www.w3.org/2000/svg">
<g filter="url(#filter0_i_378_3509)">
<rect width="338" height="53" rx="26.5" fill="#1C6BA4"/>
<rect x="10" y="6.5" width="40" height="40" rx="20" fill="#1C6BA4"/>
<g clip-path="url(#clip0_378_3509)">
<path d="M29.6818 21.1697L22.0003 27.2715V33.8571C22.0003 34.0276 22.0705 34.1911 22.1956 34.3117C22.3206 34.4323 22.4901 34.5 22.6669 34.5L27.3357 34.4883C27.512 34.4875 27.6807 34.4194 27.805 34.2989C27.9292 34.1784 27.999 34.0154 27.999 33.8454V29.9995C27.999 29.829 28.0693 29.6655 28.1943 29.5449C28.3193 29.4243 28.4888 29.3566 28.6656 29.3566H31.3321C31.5089 29.3566 31.6784 29.4243 31.8035 29.5449C31.9285 29.6655 31.9987 29.829 31.9987 29.9995V33.8426C31.9984 33.9272 32.0155 34.011 32.0489 34.0893C32.0822 34.1675 32.1313 34.2386 32.1932 34.2985C32.2551 34.3584 32.3287 34.406 32.4097 34.4384C32.4908 34.4708 32.5776 34.4875 32.6653 34.4875L37.3325 34.5C37.5093 34.5 37.6788 34.4323 37.8038 34.3117C37.9289 34.1911 37.9991 34.0276 37.9991 33.8571V27.267L30.3193 21.1697C30.229 21.0995 30.1165 21.0612 30.0005 21.0612C29.8846 21.0612 29.7721 21.0995 29.6818 21.1697ZM41.8155 25.317L38.3324 22.548V16.9822C38.3324 16.8543 38.2797 16.7317 38.186 16.6412C38.0922 16.5508 37.965 16.5 37.8324 16.5H35.4993C35.3667 16.5 35.2395 16.5508 35.1457 16.6412C35.052 16.7317 34.9993 16.8543 34.9993 16.9822V19.8999L31.2692 16.94C30.9112 16.6559 30.462 16.5006 29.9984 16.5006C29.5349 16.5006 29.0857 16.6559 28.7277 16.94L18.1814 25.317C18.1308 25.3573 18.0889 25.4069 18.0582 25.4629C18.0274 25.5189 18.0084 25.5801 18.0022 25.6432C17.996 25.7063 18.0028 25.7699 18.0221 25.8304C18.0414 25.891 18.0729 25.9473 18.1148 25.9961L19.1772 27.2417C19.219 27.2907 19.2703 27.3313 19.3284 27.3611C19.3864 27.3909 19.4499 27.4093 19.5154 27.4154C19.5808 27.4215 19.6469 27.4151 19.7097 27.3965C19.7726 27.378 19.831 27.3476 19.8817 27.3072L29.6818 19.5222C29.7721 19.452 29.8846 19.4137 30.0005 19.4137C30.1165 19.4137 30.229 19.452 30.3193 19.5222L40.1198 27.3072C40.1704 27.3476 40.2287 27.378 40.2915 27.3966C40.3543 27.4152 40.4202 27.4218 40.4856 27.4158C40.551 27.4098 40.6145 27.3915 40.6726 27.3618C40.7306 27.3322 40.782 27.2918 40.8239 27.2429L41.8863 25.9973C41.9281 25.9482 41.9595 25.8916 41.9786 25.8308C41.9976 25.77 42.0041 25.7061 41.9975 25.6429C41.9909 25.5797 41.9714 25.5184 41.9402 25.4624C41.909 25.4065 41.8666 25.357 41.8155 25.317Z" fill="white" fill-opacity="0.5"/>
</g>
<rect x="56.75" y="6.5" width="40" height="40" rx="20" fill="#1C6BA4"/>
<g clip-path="url(#clip1_378_3509)">
<path d="M82.0833 23.9286C82.0833 20.3768 78.2042 17.5 73.4167 17.5C68.6292 17.5 64.75 20.3768 64.75 23.9286C64.75 25.3067 65.3375 26.5763 66.3333 27.625C65.775 28.8384 64.8542 29.8027 64.8417 29.8147C64.75 29.9071 64.725 30.0437 64.7792 30.1643C64.8333 30.2848 64.95 30.3571 65.0833 30.3571C66.6083 30.3571 67.8708 29.8629 68.7792 29.3527C70.1208 29.9835 71.7083 30.3571 73.4167 30.3571C78.2042 30.3571 82.0833 27.4804 82.0833 23.9286ZM87.1667 32.7679C88.1625 31.7232 88.75 30.4496 88.75 29.0714C88.75 26.3835 86.5208 24.0812 83.3625 23.121C83.4 23.3862 83.4167 23.6554 83.4167 23.9286C83.4167 28.1835 78.9292 31.6429 73.4167 31.6429C72.9667 31.6429 72.5292 31.6107 72.0958 31.5665C73.4083 33.8768 76.4917 35.5 80.0833 35.5C81.7917 35.5 83.3792 35.1304 84.7208 34.4955C85.6292 35.0058 86.8917 35.5 88.4167 35.5C88.55 35.5 88.6708 35.4237 88.7208 35.3071C88.775 35.1906 88.75 35.054 88.6583 34.9576C88.6458 34.9455 87.725 33.9853 87.1667 32.7679Z" fill="white" fill-opacity="0.5"/>
</g>
<rect x="103.5" y="6.5" width="40" height="40" rx="20" fill="#1C6BA4"/>
<g clip-path="url(#clip2_378_3509)">
<path d="M129.3 25.3H117.3V27.7H129.3V25.3ZM131.7 16.9H130.5V14.5H128.1V16.9H118.5V14.5H116.1V16.9H114.9C113.568 16.9 112.512 17.98 112.512 19.3L112.5 36.1C112.5 37.42 113.568 38.5 114.9 38.5H131.7C133.02 38.5 134.1 37.42 134.1 36.1V19.3C134.1 17.98 133.02 16.9 131.7 16.9ZM131.7 36.1H114.9V22.9H131.7V36.1ZM125.7 30.1H117.3V32.5H125.7V30.1Z" fill="white" fill-opacity="0.5"/>
</g>
<rect x="150.25" y="6.5" width="40" height="40" rx="20" fill="#1C6BA4"/>
<g clip-path="url(#clip3_378_3509)">
<path d="M177.726 22.91L173.432 18.08C173.103 17.71 172.65 17.5 172.179 17.5H164.028C163.05 17.5 162.25 18.4 162.25 19.5V33.5C162.25 34.6 163.05 35.5 164.028 35.5H176.472C177.45 35.5 178.25 34.6 178.25 33.5V24.33C178.25 23.8 178.063 23.29 177.726 22.91ZM165.806 21.5H172.028V23.5H165.806V21.5ZM174.694 31.5H165.806V29.5H174.694V31.5ZM174.694 27.5H165.806V25.5H174.694V27.5Z" fill="white" fill-opacity="0.5"/>
</g>
<g filter="url(#filter1_d_378_3509)">
<rect x="197" y="6.5" width="131" height="40" rx="20" fill="white" shape-rendering="crispEdges"/>
<g clip-path="url(#clip4_378_3509)">
<path d="M216.846 38.5C218.2 38.5 219.308 37.3923 219.308 36.0385H214.385C214.385 37.3923 215.48 38.5 216.846 38.5ZM224.231 31.1154V24.9615C224.231 21.1831 222.212 18.02 218.692 17.1831V16.3462C218.692 15.3246 217.868 14.5 216.846 14.5C215.825 14.5 215 15.3246 215 16.3462V17.1831C211.468 18.02 209.462 21.1708 209.462 24.9615V31.1154L207 33.5769V34.8077H226.692V33.5769L224.231 31.1154Z" fill="#1C6BA4"/>
</g>
<path d="M242.408 21.3182V31.5H240.767L235.969 24.5646H235.885V31.5H234.04V21.3182H235.691L240.484 28.2585H240.573V21.3182H242.408ZM247.669 31.6491C246.923 31.6491 246.277 31.4851 245.73 31.157C245.183 30.8288 244.759 30.3698 244.457 29.7798C244.159 29.1899 244.01 28.5005 244.01 27.7116C244.01 26.9228 244.159 26.2318 244.457 25.6385C244.759 25.0452 245.183 24.5845 245.73 24.2564C246.277 23.9283 246.923 23.7642 247.669 23.7642C248.415 23.7642 249.061 23.9283 249.608 24.2564C250.155 24.5845 250.577 25.0452 250.875 25.6385C251.177 26.2318 251.328 26.9228 251.328 27.7116C251.328 28.5005 251.177 29.1899 250.875 29.7798C250.577 30.3698 250.155 30.8288 249.608 31.157C249.061 31.4851 248.415 31.6491 247.669 31.6491ZM247.679 30.2074C248.083 30.2074 248.421 30.0964 248.693 29.8743C248.965 29.6489 249.167 29.3473 249.299 28.9695C249.435 28.5916 249.503 28.1707 249.503 27.7067C249.503 27.2393 249.435 26.8168 249.299 26.4389C249.167 26.0578 248.965 25.7545 248.693 25.5291C248.421 25.3037 248.083 25.1911 247.679 25.1911C247.264 25.1911 246.92 25.3037 246.645 25.5291C246.373 25.7545 246.169 26.0578 246.033 26.4389C245.901 26.8168 245.834 27.2393 245.834 27.7067C245.834 28.1707 245.901 28.5916 246.033 28.9695C246.169 29.3473 246.373 29.6489 246.645 29.8743C246.92 30.0964 247.264 30.2074 247.679 30.2074ZM256.669 23.8636V25.2557H252.279V23.8636H256.669ZM253.362 22.0341H255.162V29.2031C255.162 29.4451 255.199 29.6307 255.272 29.7599C255.348 29.8859 255.447 29.9721 255.57 30.0185C255.693 30.0649 255.828 30.0881 255.978 30.0881C256.09 30.0881 256.193 30.0798 256.286 30.0632C256.382 30.0466 256.455 30.0317 256.505 30.0185L256.808 31.4254C256.712 31.4586 256.574 31.495 256.395 31.5348C256.219 31.5746 256.004 31.5978 255.749 31.6044C255.298 31.6177 254.892 31.5497 254.531 31.4006C254.17 31.2481 253.883 31.0128 253.671 30.6946C253.462 30.3764 253.359 29.9787 253.362 29.5014V22.0341ZM258.174 31.5V23.8636H259.973V31.5H258.174ZM259.079 22.7798C258.794 22.7798 258.548 22.6854 258.343 22.4964C258.137 22.3042 258.035 22.0739 258.035 21.8054C258.035 21.5336 258.137 21.3033 258.343 21.1143C258.548 20.9221 258.794 20.826 259.079 20.826C259.367 20.826 259.612 20.9221 259.814 21.1143C260.02 21.3033 260.123 21.5336 260.123 21.8054C260.123 22.0739 260.02 22.3042 259.814 22.4964C259.612 22.6854 259.367 22.7798 259.079 22.7798ZM265.692 23.8636V25.2557H261.178V23.8636H265.692ZM262.306 31.5V23.1428C262.306 22.629 262.412 22.2015 262.625 21.8601C262.84 21.5187 263.128 21.2635 263.49 21.0945C263.851 20.9254 264.252 20.8409 264.693 20.8409C265.004 20.8409 265.281 20.8658 265.523 20.9155C265.765 20.9652 265.944 21.0099 266.06 21.0497L265.702 22.4418C265.626 22.4186 265.53 22.3954 265.414 22.3722C265.298 22.3456 265.168 22.3324 265.026 22.3324C264.691 22.3324 264.454 22.4136 264.315 22.576C264.179 22.7351 264.111 22.9638 264.111 23.2621V31.5H262.306ZM267.101 31.5V23.8636H268.901V31.5H267.101ZM268.006 22.7798C267.721 22.7798 267.476 22.6854 267.271 22.4964C267.065 22.3042 266.962 22.0739 266.962 21.8054C266.962 21.5336 267.065 21.3033 267.271 21.1143C267.476 20.9221 267.721 20.826 268.006 20.826C268.295 20.826 268.54 20.9221 268.742 21.1143C268.948 21.3033 269.05 21.5336 269.05 21.8054C269.05 22.0739 268.948 22.3042 268.742 22.4964C268.54 22.6854 268.295 22.7798 268.006 22.7798ZM274.083 31.6491C273.321 31.6491 272.666 31.4818 272.119 31.147C271.575 30.8123 271.156 30.3499 270.861 29.7599C270.57 29.1667 270.424 28.4839 270.424 27.7116C270.424 26.9361 270.573 26.2517 270.871 25.6584C271.169 25.0618 271.59 24.5978 272.134 24.2663C272.681 23.9316 273.327 23.7642 274.073 23.7642C274.693 23.7642 275.241 23.8786 275.718 24.1072C276.199 24.3326 276.582 24.6525 276.867 25.0668C277.152 25.4777 277.314 25.9583 277.354 26.5085H275.634C275.564 26.1406 275.399 25.834 275.137 25.5888C274.878 25.3402 274.532 25.2159 274.098 25.2159C273.73 25.2159 273.407 25.3153 273.128 25.5142C272.85 25.7098 272.633 25.9915 272.477 26.3594C272.325 26.7273 272.248 27.1681 272.248 27.6818C272.248 28.2022 272.325 28.6496 272.477 29.0241C272.629 29.3954 272.843 29.6821 273.118 29.8842C273.397 30.0831 273.723 30.1825 274.098 30.1825C274.363 30.1825 274.6 30.1328 274.809 30.0334C275.021 29.9306 275.198 29.7831 275.341 29.5909C275.483 29.3987 275.581 29.165 275.634 28.8899H277.354C277.311 29.4302 277.152 29.9091 276.877 30.3267C276.602 30.741 276.227 31.0658 275.753 31.3011C275.279 31.5331 274.723 31.6491 274.083 31.6491ZM281.029 31.6541C280.545 31.6541 280.11 31.5679 279.722 31.3956C279.337 31.2199 279.032 30.9614 278.807 30.62C278.585 30.2786 278.474 29.8577 278.474 29.3572C278.474 28.9264 278.554 28.5701 278.713 28.2884C278.872 28.0066 279.089 27.7812 279.364 27.6122C279.639 27.4432 279.949 27.3156 280.294 27.2294C280.642 27.1399 281.001 27.0753 281.372 27.0355C281.82 26.9891 282.183 26.9477 282.461 26.9112C282.74 26.8714 282.942 26.8118 283.068 26.7322C283.197 26.6494 283.262 26.5218 283.262 26.3494V26.3196C283.262 25.9451 283.151 25.6551 282.929 25.4496C282.706 25.2441 282.387 25.1413 281.969 25.1413C281.528 25.1413 281.179 25.2375 280.92 25.4297C280.665 25.6219 280.492 25.849 280.403 26.1108L278.723 25.8722C278.855 25.4081 279.074 25.0204 279.379 24.7088C279.684 24.3939 280.057 24.1586 280.497 24.0028C280.938 23.8438 281.425 23.7642 281.959 23.7642C282.327 23.7642 282.693 23.8073 283.058 23.8935C283.422 23.9796 283.755 24.1222 284.057 24.321C284.359 24.5166 284.601 24.7834 284.783 25.1214C284.969 25.4595 285.061 25.8821 285.061 26.3892V31.5H283.331V30.451H283.272C283.162 30.6631 283.008 30.862 282.809 31.0476C282.614 31.2299 282.367 31.3774 282.068 31.4901C281.773 31.5994 281.427 31.6541 281.029 31.6541ZM281.497 30.3317C281.858 30.3317 282.171 30.2604 282.436 30.1179C282.701 29.9721 282.905 29.7798 283.048 29.5412C283.194 29.3026 283.267 29.0424 283.267 28.7607V27.8608C283.21 27.9072 283.114 27.9503 282.978 27.9901C282.846 28.0298 282.697 28.0646 282.531 28.0945C282.365 28.1243 282.201 28.1508 282.039 28.174C281.876 28.1972 281.735 28.2171 281.616 28.2337C281.348 28.2701 281.107 28.3298 280.895 28.4126C280.683 28.4955 280.516 28.6115 280.393 28.7607C280.27 28.9065 280.209 29.0954 280.209 29.3274C280.209 29.6589 280.33 29.9091 280.572 30.0781C280.814 30.2472 281.122 30.3317 281.497 30.3317ZM290.684 23.8636V25.2557H286.294V23.8636H290.684ZM287.378 22.0341H289.178V29.2031C289.178 29.4451 289.214 29.6307 289.287 29.7599C289.363 29.8859 289.463 29.9721 289.585 30.0185C289.708 30.0649 289.844 30.0881 289.993 30.0881C290.106 30.0881 290.209 30.0798 290.301 30.0632C290.398 30.0466 290.47 30.0317 290.52 30.0185L290.823 31.4254C290.727 31.4586 290.59 31.495 290.411 31.5348C290.235 31.5746 290.02 31.5978 289.764 31.6044C289.314 31.6177 288.908 31.5497 288.546 31.4006C288.185 31.2481 287.898 31.0128 287.686 30.6946C287.478 30.3764 287.375 29.9787 287.378 29.5014V22.0341ZM292.189 31.5V23.8636H293.989V31.5H292.189ZM293.094 22.7798C292.809 22.7798 292.564 22.6854 292.358 22.4964C292.153 22.3042 292.05 22.0739 292.05 21.8054C292.05 21.5336 292.153 21.3033 292.358 21.1143C292.564 20.9221 292.809 20.826 293.094 20.826C293.383 20.826 293.628 20.9221 293.83 21.1143C294.035 21.3033 294.138 21.5336 294.138 21.8054C294.138 22.0739 294.035 22.3042 293.83 22.4964C293.628 22.6854 293.383 22.7798 293.094 22.7798ZM299.171 31.6491C298.425 31.6491 297.779 31.4851 297.232 31.157C296.685 30.8288 296.261 30.3698 295.959 29.7798C295.661 29.1899 295.512 28.5005 295.512 27.7116C295.512 26.9228 295.661 26.2318 295.959 25.6385C296.261 25.0452 296.685 24.5845 297.232 24.2564C297.779 23.9283 298.425 23.7642 299.171 23.7642C299.916 23.7642 300.563 23.9283 301.11 24.2564C301.657 24.5845 302.079 25.0452 302.377 25.6385C302.679 26.2318 302.83 26.9228 302.83 27.7116C302.83 28.5005 302.679 29.1899 302.377 29.7798C302.079 30.3698 301.657 30.8288 301.11 31.157C300.563 31.4851 299.916 31.6491 299.171 31.6491ZM299.181 30.2074C299.585 30.2074 299.923 30.0964 300.195 29.8743C300.467 29.6489 300.669 29.3473 300.801 28.9695C300.937 28.5916 301.005 28.1707 301.005 27.7067C301.005 27.2393 300.937 26.8168 300.801 26.4389C300.669 26.0578 300.467 25.7545 300.195 25.5291C299.923 25.3037 299.585 25.1911 299.181 25.1911C298.766 25.1911 298.422 25.3037 298.147 25.5291C297.875 25.7545 297.671 26.0578 297.535 26.4389C297.402 26.8168 297.336 27.2393 297.336 27.7067C297.336 28.1707 297.402 28.5916 297.535 28.9695C297.671 29.3473 297.875 29.6489 298.147 29.8743C298.422 30.0964 298.766 30.2074 299.181 30.2074ZM306.157 27.0256V31.5H304.357V23.8636H306.078V25.1612H306.167C306.343 24.7337 306.623 24.3939 307.007 24.142C307.395 23.8902 307.874 23.7642 308.444 23.7642C308.971 23.7642 309.43 23.8769 309.821 24.1023C310.216 24.3277 310.52 24.6541 310.736 25.0817C310.955 25.5092 311.062 26.0279 311.059 26.6378V31.5H309.259V26.9162C309.259 26.4058 309.127 26.0064 308.862 25.718C308.6 25.4297 308.237 25.2855 307.773 25.2855C307.458 25.2855 307.178 25.3551 306.933 25.4943C306.691 25.6302 306.5 25.8274 306.361 26.0859C306.225 26.3445 306.157 26.6577 306.157 27.0256Z" fill="#1C6BA4"/>
</g>
</g>
<defs>
<filter id="filter0_i_378_3509" x="0" y="0" width="338" height="57" filterUnits="userSpaceOnUse" color-interpolation-filters="sRGB">
<feFlood flood-opacity="0" result="BackgroundImageFix"/>
<feBlend mode="normal" in="SourceGraphic" in2="BackgroundImageFix" result="shape"/>
<feColorMatrix in="SourceAlpha" type="matrix" values="0 0 0 0 0 0 0 0 0 0 0 0 0 0 0 0 0 0 127 0" result="hardAlpha"/>
<feOffset dy="4"/>
<feGaussianBlur stdDeviation="3"/>
<feComposite in2="hardAlpha" operator="arithmetic" k2="-1" k3="1"/>
<feColorMatrix type="matrix" values="0 0 0 0 0 0 0 0 0 0 0 0 0 0 0 0 0 0 0.25 0"/>
<feBlend mode="normal" in2="shape" result="effect1_innerShadow_378_3509"/>
</filter>
<filter id="filter1_d_378_3509" x="197" y="6.5" width="131" height="42" filterUnits="userSpaceOnUse" color-interpolation-filters="sRGB">
<feFlood flood-opacity="0" result="BackgroundImageFix"/>
<feColorMatrix in="SourceAlpha" type="matrix" values="0 0 0 0 0 0 0 0 0 0 0 0 0 0 0 0 0 0 127 0" result="hardAlpha"/>
<feOffset dy="2"/>
<feComposite in2="hardAlpha" operator="out"/>
<feColorMatrix type="matrix" values="0 0 0 0 0.552941 0 0 0 0 0.709804 0 0 0 0 0.819608 0 0 0 1 0"/>
<feBlend mode="normal" in2="BackgroundImageFix" result="effect1_dropShadow_378_3509"/>
<feBlend mode="normal" in="SourceGraphic" in2="effect1_dropShadow_378_3509" result="shape"/>
</filter>
<clipPath id="clip0_378_3509">
<rect width="24" height="24" fill="white" transform="translate(18 14.5)"/>
</clipPath>
<clipPath id="clip1_378_3509">
<rect width="24" height="24" fill="white" transform="translate(64.75 14.5)"/>
</clipPath>
<clipPath id="clip2_378_3509">
<rect width="24" height="24" fill="white" transform="translate(111.5 14.5)"/>
</clipPath>
<clipPath id="clip3_378_3509">
<rect width="16" height="18" fill="white" transform="translate(162.25 17.5)"/>
</clipPath>
<clipPath id="clip4_378_3509">
<rect width="24" height="24" fill="white" transform="translate(205 14.5)"/>
</clipPath>
</defs>
</svg>
