<svg width="16" height="13" viewBox="0 0 16 13" fill="none" xmlns="http://www.w3.org/2000/svg">
<path d="M3.19997 6.60756C3.19997 6.84102 2.96119 7.03027 2.66663 7.03027C2.37208 7.03027 2.1333 6.84102 2.1333 6.60756C2.1333 6.3741 2.37208 6.18484 2.66663 6.18484C2.96119 6.18484 3.19997 6.3741 3.19997 6.60756Z" stroke="#4A545E" stroke-width="1.5"/>
<path d="M8.5333 6.60756C8.5333 6.84102 8.29452 7.03027 7.99997 7.03027C7.70542 7.03027 7.46663 6.84102 7.46663 6.60756C7.46663 6.3741 7.70542 6.18484 7.99997 6.18484C8.29452 6.18484 8.5333 6.3741 8.5333 6.60756Z" stroke="#4A545E" stroke-width="1.5"/>
<path d="M13.8666 6.60756C13.8666 6.84102 13.6279 7.03027 13.3333 7.03027C13.0387 7.03027 12.8 6.84102 12.8 6.60756C12.8 6.3741 13.0387 6.18484 13.3333 6.18484C13.6279 6.18484 13.8666 6.3741 13.8666 6.60756Z" stroke="#4A545E" stroke-width="1.5"/>
</svg>
