<svg width="44" height="44" viewBox="0 0 44 44" fill="none" xmlns="http://www.w3.org/2000/svg">
<rect x="0.5" y="0.5" width="43" height="43" rx="15.5" fill="white" stroke="#D7DEEA"/>
<path d="M30.4582 25.4261L26.3018 23.6448C26.1243 23.5691 25.9269 23.5532 25.7395 23.5994C25.5521 23.6455 25.3848 23.7513 25.2628 23.9009L23.4221 26.1497C20.5334 24.7877 18.2086 22.4629 16.8466 19.5742L19.0954 17.7335C19.2452 17.6117 19.3513 17.4444 19.3975 17.2569C19.4437 17.0694 19.4275 16.8719 19.3515 16.6945L17.5702 12.5381C17.4868 12.3468 17.3392 12.1906 17.1529 12.0964C16.9666 12.0022 16.7532 11.976 16.5497 12.0223L12.6902 12.9129C12.494 12.9583 12.3189 13.0688 12.1935 13.2264C12.0682 13.384 12 13.5795 12 13.7809C12 23.2997 19.7152 31 29.219 31C29.4205 31.0001 29.6161 30.9319 29.7738 30.8066C29.9315 30.6812 30.0421 30.5061 30.0874 30.3098L30.9781 26.4503C31.024 26.2458 30.9973 26.0316 30.9024 25.8447C30.8075 25.6577 30.6504 25.5097 30.4582 25.4261Z" fill="black"/>
</svg>
