<svg width="34" height="35" viewBox="0 0 34 35" fill="#F73859" xmlns="http://www.w3.org/2000/svg">
<g clip-path="url(#clip0_378_3257)">
<path d="M6.42087 21.1111L4.33689 18.9531C4.14262 18.7536 3.99216 18.5156 3.89516 18.2546C3.79815 17.9935 3.75674 17.7151 3.77358 17.4371C3.79042 17.1591 3.86513 16.8877 3.99293 16.6402C4.12073 16.3928 4.2988 16.1747 4.51574 16.0001C6.96153 14.103 9.81821 12.8061 12.8562 12.2136C15.6608 11.6396 18.5574 11.6901 21.3402 12.3617C24.3682 13.0643 27.188 14.4703 29.5713 16.4657C29.7814 16.6473 29.9513 16.8706 30.0704 17.1215C30.1894 17.3723 30.2549 17.6452 30.2627 17.9227C30.2705 18.2003 30.2204 18.4764 30.1156 18.7336C30.0109 18.9907 29.8537 19.2232 29.6542 19.4163L27.4961 21.5002C27.1504 21.8408 26.6925 22.044 26.208 22.072C25.7235 22.0999 25.2453 21.9508 24.8626 21.6523C24.1046 21.0496 23.2809 20.5347 22.4071 20.1172C22.0617 19.9532 21.7705 19.6936 21.5681 19.3692C21.3657 19.0448 21.2606 18.6691 21.2651 18.2868L21.2964 16.491C18.5333 15.679 15.6022 15.6278 12.8125 16.3429L12.7811 18.1387C12.7723 18.521 12.6541 18.8927 12.4405 19.2099C12.2269 19.527 11.9268 19.7763 11.5759 19.9281C10.6881 20.3149 9.84686 20.8008 9.06829 21.3766C8.67125 21.6647 8.18216 21.7969 7.69404 21.748C7.20591 21.699 6.75279 21.4724 6.42087 21.1111Z" stroke="white" stroke-width="1.4" stroke-linecap="round" stroke-linejoin="round"/>
</g>
<defs>
<clipPath id="clip0_378_3257">
<rect width="24" height="24" fill="white" transform="translate(34 18) rotate(136)"/>
</clipPath>
</defs>
</svg>
