<svg width="44" height="45" viewBox="0 0 44 45" fill="none" xmlns="http://www.w3.org/2000/svg">
<path d="M35.5274 9C34.1521 9 32.8896 8.2125 32.2583 6.9975L30.635 3.735C29.5979 1.6875 26.8924 0 24.5928 0H19.4298C17.1076 0 14.4021 1.6875 13.365 3.735L11.7417 6.9975C11.1104 8.2125 9.84788 9 8.4726 9C3.5802 9 -0.297647 13.1175 0.0179915 17.9775L1.19036 36.5625C1.46091 41.1975 3.96347 45 10.1861 45H33.8139C40.0365 45 42.5165 41.1975 42.8096 36.5625L43.982 17.9775C44.2976 13.1175 40.4198 9 35.5274 9ZM18.6182 11.8125H25.3819C26.3062 11.8125 27.0728 12.5775 27.0728 13.5C27.0728 14.4225 26.3062 15.1875 25.3819 15.1875H18.6182C17.6938 15.1875 16.9272 14.4225 16.9272 13.5C16.9272 12.5775 17.6938 11.8125 18.6182 11.8125ZM22 36.27C17.8065 36.27 14.3795 32.8725 14.3795 28.665C14.3795 24.4575 17.784 21.06 22 21.06C26.2161 21.06 29.6205 24.4575 29.6205 28.665C29.6205 32.8725 26.1935 36.27 22 36.27Z" fill="#1C6BA4"/>
</svg>
