<svg width="116" height="43" viewBox="0 0 116 43" fill="none" xmlns="http://www.w3.org/2000/svg">
<g filter="url(#filter0_d_488_143)">
<rect y="0.5" width="116" height="40" rx="20" fill="white" shape-rendering="crispEdges"/>
<g clip-path="url(#clip0_488_143)">
<g clip-path="url(#clip1_488_143)">
<path d="M25.8 19.3H13.8V21.7H25.8V19.3ZM28.2 10.9H27V8.5H24.6V10.9H15V8.5H12.6V10.9H11.4C10.068 10.9 9.012 11.98 9.012 13.3L9 30.1C9 31.42 10.068 32.5 11.4 32.5H28.2C29.52 32.5 30.6 31.42 30.6 30.1V13.3C30.6 11.98 29.52 10.9 28.2 10.9ZM28.2 30.1H11.4V16.9H28.2V30.1ZM22.2 24.1H13.8V26.5H22.2V24.1Z" fill="#1C6BA4"/>
</g>
</g>
<path d="M42.8667 18.1172C42.8203 17.683 42.6248 17.3449 42.2801 17.103C41.9387 16.861 41.4946 16.7401 40.9477 16.7401C40.5632 16.7401 40.2335 16.7981 39.9584 16.9141C39.6833 17.0301 39.4728 17.1875 39.327 17.3864C39.1811 17.5852 39.1066 17.8123 39.1032 18.0675C39.1032 18.2796 39.1513 18.4635 39.2474 18.6193C39.3469 18.7751 39.4811 18.9077 39.6501 19.017C39.8192 19.1231 40.0064 19.2126 40.2119 19.2855C40.4174 19.3584 40.6246 19.4197 40.8334 19.4695L41.7879 19.7081C42.1724 19.7976 42.5419 19.9186 42.8966 20.071C43.2545 20.2235 43.5744 20.4157 43.8561 20.6477C44.1411 20.8797 44.3665 21.1598 44.5322 21.4879C44.6979 21.8161 44.7808 22.2005 44.7808 22.6413C44.7808 23.2379 44.6283 23.7633 44.3234 24.2173C44.0185 24.6681 43.5777 25.0211 43.001 25.2763C42.4276 25.5282 41.7332 25.6541 40.9179 25.6541C40.1257 25.6541 39.438 25.5315 38.8547 25.2862C38.2747 25.041 37.8206 24.683 37.4925 24.2124C37.1676 23.7417 36.992 23.1683 36.9655 22.4922H38.7801C38.8066 22.8468 38.916 23.1418 39.1082 23.3771C39.3005 23.6125 39.5507 23.7881 39.8589 23.9041C40.1705 24.0201 40.5185 24.0781 40.903 24.0781C41.304 24.0781 41.6553 24.0185 41.9569 23.8991C42.2619 23.7765 42.5005 23.6075 42.6729 23.392C42.8452 23.1733 42.933 22.9181 42.9363 22.6264C42.933 22.3613 42.8551 22.1425 42.7027 21.9702C42.5502 21.7945 42.3364 21.6487 42.0613 21.5327C41.7896 21.4134 41.4714 21.3073 41.1068 21.2145L39.9484 20.9162C39.1099 20.7008 38.447 20.3743 37.9598 19.9368C37.4759 19.496 37.2339 18.911 37.2339 18.1818C37.2339 17.5819 37.3963 17.0566 37.7211 16.6058C38.0493 16.1551 38.4951 15.8054 39.0585 15.5568C39.622 15.3049 40.26 15.179 40.9726 15.179C41.6951 15.179 42.3282 15.3049 42.8717 15.5568C43.4186 15.8054 43.8478 16.1518 44.1594 16.5959C44.4709 17.0367 44.6317 17.5438 44.6416 18.1172H42.8667ZM49.6766 25.6491C48.9143 25.6491 48.2597 25.4818 47.7128 25.147C47.1692 24.8123 46.75 24.3499 46.455 23.7599C46.1633 23.1667 46.0175 22.4839 46.0175 21.7116C46.0175 20.9361 46.1666 20.2517 46.4649 19.6584C46.7632 19.0618 47.1842 18.5978 47.7277 18.2663C48.2746 17.9316 48.9209 17.7642 49.6666 17.7642C50.2864 17.7642 50.835 17.8786 51.3122 18.1072C51.7928 18.3326 52.1756 18.6525 52.4607 19.0668C52.7457 19.4777 52.9081 19.9583 52.9479 20.5085H51.2277C51.1581 20.1406 50.9924 19.834 50.7306 19.5888C50.472 19.3402 50.1257 19.2159 49.6915 19.2159C49.3236 19.2159 49.0004 19.3153 48.722 19.5142C48.4436 19.7098 48.2265 19.9915 48.0708 20.3594C47.9183 20.7273 47.8421 21.1681 47.8421 21.6818C47.8421 22.2022 47.9183 22.6496 48.0708 23.0241C48.2232 23.3954 48.437 23.6821 48.7121 23.8842C48.9905 24.0831 49.317 24.1825 49.6915 24.1825C49.9566 24.1825 50.1936 24.1328 50.4024 24.0334C50.6146 23.9306 50.7919 23.7831 50.9344 23.5909C51.0769 23.3987 51.1747 23.165 51.2277 22.8899H52.9479C52.9048 23.4302 52.7457 23.9091 52.4706 24.3267C52.1955 24.741 51.821 25.0658 51.347 25.3011C50.8731 25.5331 50.3163 25.6491 49.6766 25.6491ZM56.2254 21.0256V25.5H54.4257V15.3182H56.1856V19.1612H56.2751C56.4541 18.7304 56.7309 18.3906 57.1054 18.142C57.4832 17.8902 57.9638 17.7642 58.5471 17.7642C59.0774 17.7642 59.5398 17.8752 59.9342 18.0973C60.3286 18.3194 60.6336 18.6442 60.849 19.0717C61.0677 19.4993 61.1771 20.0213 61.1771 20.6378V25.5H59.3774V20.9162C59.3774 20.4025 59.2448 20.0031 58.9797 19.718C58.7178 19.4297 58.3499 19.2855 57.876 19.2855C57.5578 19.2855 57.2728 19.3551 57.0209 19.4943C56.7723 19.6302 56.5767 19.8274 56.4342 20.0859C56.295 20.3445 56.2254 20.6577 56.2254 21.0256ZM66.3923 25.6491C65.6267 25.6491 64.9655 25.4901 64.4086 25.1719C63.8551 24.8504 63.4292 24.3963 63.1309 23.8097C62.8327 23.2197 62.6835 22.5253 62.6835 21.7266C62.6835 20.9411 62.8327 20.2517 63.1309 19.6584C63.4326 19.0618 63.8535 18.5978 64.3937 18.2663C64.934 17.9316 65.5687 17.7642 66.2979 17.7642C66.7685 17.7642 67.2126 17.8404 67.6302 17.9929C68.0512 18.142 68.4224 18.3741 68.7439 18.6889C69.0687 19.0038 69.3239 19.4048 69.5095 19.892C69.6951 20.3759 69.7879 20.9527 69.7879 21.6222V22.174H63.5287V20.9609H68.0628C68.0595 20.6162 67.9849 20.3097 67.839 20.0412C67.6932 19.7694 67.4894 19.5556 67.2275 19.3999C66.969 19.2441 66.6674 19.1662 66.3227 19.1662C65.9548 19.1662 65.6317 19.2557 65.3532 19.4347C65.0748 19.6103 64.8577 19.8423 64.702 20.1307C64.5495 20.4157 64.4716 20.7289 64.4683 21.0703V22.1293C64.4683 22.5734 64.5495 22.9545 64.7119 23.2727C64.8743 23.5876 65.1014 23.8295 65.393 23.9986C65.6847 24.1643 66.0261 24.2472 66.4172 24.2472C66.679 24.2472 66.916 24.2107 67.1281 24.1378C67.3402 24.0616 67.5242 23.9505 67.68 23.8047C67.8357 23.6589 67.9534 23.4782 68.0329 23.2628L69.7133 23.4517C69.6073 23.8958 69.4051 24.2836 69.1068 24.6151C68.8118 24.9432 68.434 25.1984 67.9733 25.3807C67.5126 25.5597 66.9856 25.6491 66.3923 25.6491ZM74.1443 25.6342C73.5444 25.6342 73.0074 25.4801 72.5335 25.1719C72.0595 24.8636 71.685 24.4162 71.4099 23.8295C71.1348 23.2429 70.9972 22.5303 70.9972 21.6918C70.9972 20.8433 71.1365 20.1274 71.4149 19.544C71.6966 18.9574 72.0761 18.5149 72.5534 18.2166C73.0306 17.915 73.5626 17.7642 74.1492 17.7642C74.5967 17.7642 74.9646 17.8404 75.2529 17.9929C75.5413 18.142 75.77 18.3227 75.939 18.5348C76.108 18.7436 76.239 18.9408 76.3318 19.1264H76.4063V15.3182H78.211V25.5H76.4411V24.2969H76.3318C76.239 24.4825 76.1047 24.6797 75.9291 24.8885C75.7534 25.094 75.5214 25.2696 75.233 25.4155C74.9447 25.5613 74.5818 25.6342 74.1443 25.6342ZM74.6464 24.1577C75.0276 24.1577 75.3524 24.0549 75.6208 23.8494C75.8893 23.6406 76.0931 23.3506 76.2323 22.9794C76.3715 22.6082 76.4411 22.1757 76.4411 21.6818C76.4411 21.188 76.3715 20.7588 76.2323 20.3942C76.0964 20.0296 75.8943 19.7462 75.6258 19.544C75.3606 19.3419 75.0342 19.2408 74.6464 19.2408C74.2454 19.2408 73.9106 19.3452 73.6421 19.554C73.3737 19.7628 73.1715 20.0511 73.0356 20.419C72.8997 20.7869 72.8318 21.2079 72.8318 21.6818C72.8318 22.1591 72.8997 22.585 73.0356 22.9595C73.1748 23.3307 73.3786 23.6241 73.6471 23.8395C73.9189 24.0516 74.252 24.1577 74.6464 24.1577ZM84.996 22.2884V17.8636H86.7957V25.5H85.0507V24.1428H84.9711C84.7988 24.5703 84.5154 24.92 84.121 25.1918C83.7299 25.4635 83.2477 25.5994 82.6743 25.5994C82.1738 25.5994 81.7313 25.4884 81.3469 25.2663C80.9657 25.041 80.6674 24.7145 80.452 24.2869C80.2365 23.8561 80.1288 23.3357 80.1288 22.7259V17.8636H81.9285V22.4474C81.9285 22.9313 82.0611 23.3158 82.3263 23.6009C82.5914 23.8859 82.9394 24.0284 83.3703 24.0284C83.6354 24.0284 83.8923 23.9638 84.1409 23.8345C84.3895 23.7053 84.5933 23.513 84.7524 23.2578C84.9148 22.9993 84.996 22.6761 84.996 22.2884ZM90.4461 15.3182V25.5H88.6464V15.3182H90.4461ZM95.6775 25.6491C94.9118 25.6491 94.2506 25.4901 93.6938 25.1719C93.1403 24.8504 92.7144 24.3963 92.4161 23.8097C92.1178 23.2197 91.9687 22.5253 91.9687 21.7266C91.9687 20.9411 92.1178 20.2517 92.4161 19.6584C92.7177 19.0618 93.1386 18.5978 93.6789 18.2663C94.2191 17.9316 94.8538 17.7642 95.583 17.7642C96.0537 17.7642 96.4978 17.8404 96.9154 17.9929C97.3363 18.142 97.7075 18.3741 98.029 18.6889C98.3538 19.0038 98.609 19.4048 98.7947 19.892C98.9803 20.3759 99.0731 20.9527 99.0731 21.6222V22.174H92.8138V20.9609H97.3479C97.3446 20.6162 97.27 20.3097 97.1242 20.0412C96.9784 19.7694 96.7745 19.5556 96.5127 19.3999C96.2542 19.2441 95.9526 19.1662 95.6079 19.1662C95.24 19.1662 94.9168 19.2557 94.6384 19.4347C94.36 19.6103 94.1429 19.8423 93.9871 20.1307C93.8347 20.4157 93.7568 20.7289 93.7535 21.0703V22.1293C93.7535 22.5734 93.8347 22.9545 93.9971 23.2727C94.1595 23.5876 94.3865 23.8295 94.6782 23.9986C94.9698 24.1643 95.3112 24.2472 95.7023 24.2472C95.9642 24.2472 96.2011 24.2107 96.4133 24.1378C96.6254 24.0616 96.8093 23.9505 96.9651 23.8047C97.1209 23.6589 97.2385 23.4782 97.3181 23.2628L98.9985 23.4517C98.8924 23.8958 98.6903 24.2836 98.392 24.6151C98.097 24.9432 97.7191 25.1984 97.2584 25.3807C96.7977 25.5597 96.2707 25.6491 95.6775 25.6491Z" fill="#1C6BA4"/>
</g>
<defs>
<filter id="filter0_d_488_143" x="0" y="0.5" width="116" height="42" filterUnits="userSpaceOnUse" color-interpolation-filters="sRGB">
<feFlood flood-opacity="0" result="BackgroundImageFix"/>
<feColorMatrix in="SourceAlpha" type="matrix" values="0 0 0 0 0 0 0 0 0 0 0 0 0 0 0 0 0 0 127 0" result="hardAlpha"/>
<feOffset dy="2"/>
<feComposite in2="hardAlpha" operator="out"/>
<feColorMatrix type="matrix" values="0 0 0 0 0.552941 0 0 0 0 0.709804 0 0 0 0 0.819608 0 0 0 1 0"/>
<feBlend mode="normal" in2="BackgroundImageFix" result="effect1_dropShadow_488_143"/>
<feBlend mode="normal" in="SourceGraphic" in2="effect1_dropShadow_488_143" result="shape"/>
</filter>
<clipPath id="clip0_488_143">
<rect width="24" height="24" fill="white" transform="translate(8 8.5)"/>
</clipPath>
<clipPath id="clip1_488_143">
<rect width="24" height="24" fill="white" transform="translate(8 8.5)"/>
</clipPath>
</defs>
</svg>
