<svg width="32" height="33" viewBox="0 0 32 33" fill="none" xmlns="http://www.w3.org/2000/svg">
<path d="M13.397 10.3759H7.93782L12.6399 5.59434C12.8587 5.3753 13.1152 5.19755 13.3969 5.06933L13.397 10.3759ZM25.602 6.59212V27.0464C25.6033 27.5145 25.419 27.9641 25.0894 28.2964C24.7596 28.6286 24.3116 28.8167 23.8435 28.8193H8.75896C8.29087 28.8169 7.84271 28.6289 7.51289 28.2966C7.1833 27.9641 6.99878 27.5147 7.00001 27.0464V12.4122C7.00001 12.3458 7.01398 12.2825 7.01891 12.2172H14.3176V12.2169C14.5617 12.2172 14.7958 12.1202 14.9686 11.9474C15.1412 11.7748 15.2382 11.5405 15.2382 11.2964V4.81934H23.8436H23.8434C24.3115 4.82201 24.7594 5.01002 25.0892 5.34229C25.4188 5.67455 25.6031 6.12413 25.6019 6.59225L25.602 6.59212ZM17.0792 11.2964C17.079 11.5406 17.176 11.7748 17.3486 11.9474C17.5214 12.1202 17.7555 12.2172 17.9998 12.217H20.7615C21.0903 12.217 21.3941 12.0415 21.5585 11.7567C21.7231 11.4719 21.7231 11.121 21.5585 10.8362C21.3941 10.5514 21.0902 10.3759 20.7615 10.3759H17.9998C17.7555 10.3759 17.5214 10.4729 17.3486 10.6455C17.176 10.8181 17.079 11.0523 17.0792 11.2964ZM21.7018 22.3937C21.7032 22.1495 21.6077 21.9147 21.4361 21.7411C21.2643 21.5674 21.0307 21.4692 20.7865 21.4678L11.5609 21.4156C11.3148 21.4076 11.0762 21.5011 10.9011 21.6741C10.7261 21.8471 10.6297 22.0846 10.635 22.3308C10.6334 22.5749 10.7292 22.8098 10.9007 22.9834C11.0723 23.157 11.3059 23.2554 11.5501 23.2567L20.7757 23.3089H20.7812C21.0243 23.3089 21.2577 23.2125 21.4301 23.0411C21.6027 22.8697 21.7003 22.6369 21.7018 22.3936L21.7018 22.3937ZM21.7018 16.8703C21.7032 16.6262 21.6077 16.3913 21.4361 16.2177C21.2643 16.0441 21.0307 15.9458 20.7865 15.9444L11.5609 15.8922H11.5556C11.2266 15.8914 10.9223 16.0658 10.7569 16.3502C10.5917 16.6346 10.5906 16.9854 10.7542 17.2708C10.9178 17.556 11.2213 17.7325 11.55 17.7333L20.7756 17.7855H20.7812C21.0243 17.7855 21.2577 17.6892 21.4301 17.5178C21.6027 17.3464 21.7003 17.1136 21.7017 16.8703L21.7018 16.8703Z" fill="#1C6BA4"/>
</svg>
