<svg width="163" height="163" viewBox="0 0 163 163" fill="none" xmlns="http://www.w3.org/2000/svg">
<path fill-rule="evenodd" clip-rule="evenodd" d="M65.1484 21.7351C63.4945 23.1446 62.6674 23.8494 61.7842 24.4414C59.7596 25.7984 57.4858 26.7402 55.0947 27.2122C54.0515 27.4182 52.9684 27.5046 50.8022 27.6775C45.3595 28.1119 42.6381 28.329 40.3677 29.131C35.1164 30.9858 30.9858 35.1163 29.131 40.3676C28.3291 42.638 28.1119 45.3594 27.6775 50.8021C27.5047 52.9683 27.4183 54.0515 27.2123 55.0946C26.7402 57.4857 25.7984 59.7595 24.4414 61.7841C23.8495 62.6674 23.1447 63.4943 21.7352 65.1483C18.1937 69.3041 16.4229 71.3817 15.3846 73.5544C12.9829 78.5795 12.9829 84.4203 15.3846 89.4455C16.423 91.6182 18.1937 93.6957 21.7352 97.8515C23.1445 99.5053 23.8495 100.333 24.4414 101.215C25.7984 103.24 26.7402 105.514 27.2123 107.905C27.4183 108.948 27.5047 110.032 27.6775 112.198C28.1119 117.64 28.3291 120.362 29.131 122.632C30.9858 127.884 35.1164 132.014 40.3677 133.869C42.6381 134.671 45.3595 134.888 50.8022 135.323C52.9684 135.495 54.0515 135.582 55.0947 135.788C57.4858 136.26 59.7596 137.202 61.7842 138.559C62.6674 139.15 63.4944 139.855 65.1484 141.265C69.3042 144.806 71.3818 146.577 73.5544 147.615C78.5796 150.017 84.4204 150.017 89.4456 147.615C91.6182 146.577 93.6958 144.806 97.8516 141.265C99.5054 139.855 100.333 139.15 101.216 138.559C103.24 137.202 105.514 136.26 107.905 135.788C108.949 135.582 110.032 135.495 112.198 135.323C117.64 134.888 120.362 134.671 122.632 133.869C127.884 132.014 132.014 127.884 133.869 122.632C134.671 120.362 134.888 117.64 135.323 112.198C135.495 110.032 135.582 108.948 135.788 107.905C136.26 105.514 137.202 103.24 138.559 101.215C139.15 100.333 139.855 99.5053 141.265 97.8515C144.806 93.6957 146.577 91.6182 147.615 89.4455C150.017 84.4203 150.017 78.5795 147.615 73.5544C146.577 71.3817 144.806 69.3041 141.265 65.1483C139.855 63.4943 139.15 62.6674 138.559 61.7841C137.202 59.7595 136.26 57.4857 135.788 55.0946C135.582 54.0515 135.495 52.9683 135.323 50.8021C134.888 45.3594 134.671 42.638 133.869 40.3676C132.014 35.1163 127.884 30.9858 122.632 29.131C120.362 28.329 117.64 28.1119 112.198 27.6775C110.032 27.5046 108.949 27.4182 107.905 27.2122C105.514 26.7402 103.24 25.7984 101.216 24.4414C100.333 23.8494 99.5054 23.1446 97.8516 21.7351C93.6958 18.1937 91.6182 16.4229 89.4456 15.3846C84.4204 12.9828 78.5796 12.9828 73.5544 15.3846C71.3818 16.4229 69.3042 18.1937 65.1484 21.7351ZM111.203 66.9871C113.362 64.8284 113.362 61.3287 111.203 59.17C109.045 57.0114 105.545 57.0114 103.386 59.17L70.4452 92.1112L59.6136 81.2799C57.455 79.1215 53.9552 79.1215 51.7966 81.2799C49.638 83.4383 49.638 86.938 51.7966 89.0971L66.5365 103.837C68.695 105.995 72.1947 105.995 74.3538 103.837L111.203 66.9871Z" fill="#008A5E"/>
</svg>
