<svg width="169" height="92" viewBox="0 0 169 92" fill="none" xmlns="http://www.w3.org/2000/svg">
<g filter="url(#filter0_d_809_813)">
<rect x="24" y="18" width="121" height="44" rx="18" fill="white"/>
<rect x="25.5" y="19.5" width="118" height="41" rx="16.5" stroke="white" stroke-width="3"/>
</g>
<path d="M67.66 36V28.95H69.19L71.44 32.99L73.69 28.95H75.18V36H73.52V32.17L71.91 34.96H70.91L69.32 32.21V36H67.66ZM76.5779 36V28.95H81.5579V30.37H78.3379V31.71H81.3279V33.13H78.3379V34.58H81.5579V36H76.5779ZM82.8205 36V28.95H85.7405C86.9605 28.95 87.9071 29.2567 88.5805 29.87C89.2538 30.4833 89.5905 31.35 89.5905 32.47C89.5905 33.59 89.2538 34.46 88.5805 35.08C87.9071 35.6933 86.9605 36 85.7405 36H82.8205ZM84.6605 34.51H85.6205C86.3205 34.51 86.8371 34.3433 87.1705 34.01C87.5105 33.67 87.6805 33.1567 87.6805 32.47C87.6805 31.7833 87.5105 31.2733 87.1705 30.94C86.8305 30.6067 86.3138 30.44 85.6205 30.44H84.6605V34.51ZM90.7818 36V28.95H92.6218V36H90.7818ZM97.557 36.11C96.777 36.11 96.107 35.96 95.547 35.66C94.987 35.36 94.557 34.9367 94.257 34.39C93.9637 33.8433 93.817 33.2033 93.817 32.47C93.817 31.7367 93.9637 31.1 94.257 30.56C94.557 30.0133 94.987 29.59 95.547 29.29C96.107 28.99 96.777 28.84 97.557 28.84C98.0237 28.84 98.4737 28.9133 98.907 29.06C99.3404 29.2 99.6904 29.3867 99.957 29.62L99.407 31.07C99.1137 30.8567 98.8204 30.7 98.527 30.6C98.2337 30.4933 97.9337 30.44 97.627 30.44C97.007 30.44 96.5404 30.6167 96.227 30.97C95.9137 31.3167 95.757 31.8167 95.757 32.47C95.757 33.13 95.9137 33.6367 96.227 33.99C96.5404 34.3367 97.007 34.51 97.627 34.51C97.9337 34.51 98.2337 34.46 98.527 34.36C98.8204 34.2533 99.1137 34.0933 99.407 33.88L99.957 35.33C99.6904 35.5633 99.3404 35.7533 98.907 35.9C98.4737 36.04 98.0237 36.11 97.557 36.11ZM99.9951 36L103.295 28.95H104.745L108.045 36H106.205L105.595 34.57H102.445L101.835 36H99.9951ZM104.005 30.87L103.045 33.16H104.985L104.025 30.87H104.005ZM108.572 36V28.95H110.412V34.47H113.552V36H108.572ZM67.64 50V42.95H72.62V44.37H69.4V45.71H72.39V47.13H69.4V48.58H72.62V50H67.64ZM73.9026 50V42.95H75.4326L77.6826 46.99L79.9326 42.95H81.4226V50H79.7626V46.17L78.1526 48.96H77.1526L75.5626 46.21V50H73.9026ZM82.8205 50V42.95H87.8005V44.37H84.5805V45.71H87.5705V47.13H84.5805V48.58H87.8005V50H82.8205ZM89.063 50V42.95H92.453C93.253 42.95 93.8697 43.1467 94.303 43.54C94.743 43.9267 94.963 44.4667 94.963 45.16C94.963 45.6867 94.8297 46.13 94.563 46.49C94.303 46.8433 93.923 47.09 93.423 47.23C93.7964 47.33 94.0964 47.5867 94.323 48L95.423 50H93.403L92.183 47.76C92.103 47.62 91.9997 47.52 91.873 47.46C91.753 47.4 91.613 47.37 91.453 47.37H90.903V50H89.063ZM90.903 46.07H92.123C92.8497 46.07 93.213 45.7833 93.213 45.21C93.213 44.6433 92.8497 44.36 92.123 44.36H90.903V46.07ZM99.7748 50.11C98.9681 50.11 98.2814 49.96 97.7148 49.66C97.1548 49.36 96.7281 48.94 96.4348 48.4C96.1414 47.86 95.9948 47.23 95.9948 46.51C95.9948 45.7633 96.1481 45.1167 96.4548 44.57C96.7681 44.0167 97.2148 43.59 97.7948 43.29C98.3748 42.99 99.0748 42.84 99.8948 42.84C100.388 42.84 100.858 42.9067 101.305 43.04C101.751 43.1667 102.115 43.34 102.395 43.56L101.835 44.98C101.528 44.78 101.218 44.6367 100.905 44.55C100.591 44.4567 100.258 44.41 99.9048 44.41C99.2314 44.41 98.7281 44.59 98.3948 44.95C98.0681 45.31 97.9048 45.83 97.9048 46.51C97.9048 47.19 98.0714 47.7033 98.4048 48.05C98.7381 48.3967 99.2314 48.57 99.8848 48.57C100.191 48.57 100.535 48.5233 100.915 48.43V47.32H99.5048V46.03H102.415V49.57C102.041 49.7433 101.625 49.8767 101.165 49.97C100.705 50.0633 100.241 50.11 99.7748 50.11ZM103.745 50V42.95H108.725V44.37H105.505V45.71H108.495V47.13H105.505V48.58H108.725V50H103.745ZM109.988 50V42.95H111.338L114.578 46.99V42.95H116.278V50H114.938L111.698 45.96V50H109.988ZM121.226 50.11C120.446 50.11 119.776 49.96 119.216 49.66C118.656 49.36 118.226 48.9367 117.926 48.39C117.633 47.8433 117.486 47.2033 117.486 46.47C117.486 45.7367 117.633 45.1 117.926 44.56C118.226 44.0133 118.656 43.59 119.216 43.29C119.776 42.99 120.446 42.84 121.226 42.84C121.693 42.84 122.143 42.9133 122.576 43.06C123.01 43.2 123.36 43.3867 123.626 43.62L123.076 45.07C122.783 44.8567 122.49 44.7 122.196 44.6C121.903 44.4933 121.603 44.44 121.296 44.44C120.676 44.44 120.21 44.6167 119.896 44.97C119.583 45.3167 119.426 45.8167 119.426 46.47C119.426 47.13 119.583 47.6367 119.896 47.99C120.21 48.3367 120.676 48.51 121.296 48.51C121.603 48.51 121.903 48.46 122.196 48.36C122.49 48.2533 122.783 48.0933 123.076 47.88L123.626 49.33C123.36 49.5633 123.01 49.7533 122.576 49.9C122.143 50.04 121.693 50.11 121.226 50.11ZM126.174 50V46.88L123.464 42.95H125.574L127.124 45.24L128.674 42.95H130.724L128.014 46.88V50H126.174Z" fill="#FF3F6D"/>
<path d="M36.3637 30.7598L45.2503 25.6283C46.7015 24.7906 48.4967 24.7906 49.9629 25.6283L58.8344 30.7598C60.2856 31.5976 61.1832 33.1535 61.1832 34.844V45.077C61.1832 46.7526 60.2856 48.3085 58.8344 49.1613L49.9479 54.2927C48.4967 55.1305 46.7015 55.1305 45.2353 54.2927L36.3488 49.1613C34.8976 48.3235 34 46.7676 34 45.077V34.844C34.0149 33.1535 34.9126 31.6126 36.3637 30.7598ZM48.7211 33.6023C48.7211 32.9889 48.2125 32.4803 47.5991 32.4803C46.9857 32.4803 46.4771 32.9889 46.4771 33.6023V41.4566C46.4771 42.07 46.9857 42.5786 47.5991 42.5786C48.2125 42.5786 48.7211 42.07 48.7211 41.4566V33.6023ZM46.2227 46.8873C46.2975 47.0668 46.4023 47.2314 46.5369 47.381C46.8211 47.6652 47.1952 47.8148 47.5991 47.8148C47.7936 47.8148 47.9881 47.7699 48.1676 47.6951C48.3621 47.6203 48.5117 47.5156 48.6613 47.381C48.7959 47.2314 48.9007 47.0668 48.9904 46.8873C49.0652 46.7077 49.0951 46.5132 49.0951 46.3188C49.0951 45.9298 48.9455 45.5408 48.6613 45.2566C48.5117 45.1219 48.3621 45.0172 48.1676 44.9424C47.6141 44.703 46.9558 44.8377 46.5369 45.2566C46.4023 45.4062 46.2975 45.5558 46.2227 45.7503C46.1479 45.9298 46.103 46.1243 46.103 46.3188C46.103 46.5132 46.1479 46.7077 46.2227 46.8873Z" fill="#FF3F6D"/>
<defs>
<filter id="filter0_d_809_813" x="0" y="0" width="169" height="92" filterUnits="userSpaceOnUse" color-interpolation-filters="sRGB">
<feFlood flood-opacity="0" result="BackgroundImageFix"/>
<feColorMatrix in="SourceAlpha" type="matrix" values="0 0 0 0 0 0 0 0 0 0 0 0 0 0 0 0 0 0 127 0" result="hardAlpha"/>
<feOffset dy="6"/>
<feGaussianBlur stdDeviation="12"/>
<feComposite in2="hardAlpha" operator="out"/>
<feColorMatrix type="matrix" values="0 0 0 0 0.419608 0 0 0 0 0.52549 0 0 0 0 0.701961 0 0 0 0.25 0"/>
<feBlend mode="normal" in2="BackgroundImageFix" result="effect1_dropShadow_809_813"/>
<feBlend mode="normal" in="SourceGraphic" in2="effect1_dropShadow_809_813" result="shape"/>
</filter>
</defs>
</svg>
