<svg width="27" height="26" viewBox="0 0 27 26" fill="none" xmlns="http://www.w3.org/2000/svg">
<path d="M18.9167 3.79172C18.9167 3.64807 18.8596 3.51029 18.758 3.40871C18.6564 3.30713 18.5187 3.25006 18.375 3.25006H15.6667C14.3029 3.18212 12.9676 3.65673 11.9527 4.57019C10.9377 5.48364 10.3256 6.76168 10.25 8.12506V11.0501H7.54167C7.39801 11.0501 7.26023 11.1071 7.15865 11.2087C7.05707 11.3103 7 11.4481 7 11.5917V14.4084C7 14.552 7.05707 14.6898 7.15865 14.7914C7.26023 14.893 7.39801 14.9501 7.54167 14.9501H10.25V22.2084C10.25 22.352 10.3071 22.4898 10.4086 22.5914C10.5102 22.693 10.648 22.7501 10.7917 22.7501H14.0417C14.1853 22.7501 14.3231 22.693 14.4247 22.5914C14.5263 22.4898 14.5833 22.352 14.5833 22.2084V14.9501H17.4217C17.5421 14.9518 17.6597 14.9133 17.7559 14.8407C17.852 14.7681 17.9212 14.6656 17.9525 14.5492L18.7325 11.7326C18.7541 11.6525 18.7569 11.5686 18.741 11.4873C18.725 11.4059 18.6906 11.3294 18.6403 11.2634C18.5901 11.1975 18.5254 11.144 18.4512 11.107C18.3771 11.07 18.2954 11.0505 18.2125 11.0501H14.5833V8.12506C14.6103 7.85691 14.7362 7.60843 14.9365 7.42814C15.1368 7.24786 15.3972 7.14871 15.6667 7.15006H18.375C18.5187 7.15006 18.6564 7.09299 18.758 6.99141C18.8596 6.88982 18.9167 6.75205 18.9167 6.60839V3.79172Z" fill="#3F5E9D"/>
</svg>
