<svg width="11" height="19" viewBox="0 0 11 19" fill="none" xmlns="http://www.w3.org/2000/svg">
<path d="M10.5037 9.63692C10.5037 9.28337 10.3739 8.98033 10.0945 8.71769L2.33084 1.02037C2.11131 0.798141 1.83189 0.676923 1.50259 0.676923C0.843969 0.676923 0.315081 1.2022 0.315081 1.879C0.315081 2.21235 0.454788 2.50529 0.674326 2.73762L7.66962 9.63692L0.674325 16.5362C0.454786 16.7686 0.31508 17.0716 0.31508 17.3948C0.31508 18.0716 0.843967 18.5969 1.50258 18.5969C1.83189 18.5969 2.1113 18.4757 2.33084 18.2535L10.0945 10.5663C10.3739 10.2935 10.5037 9.99048 10.5037 9.63692Z" fill="#1A4563"/>
</svg>
