<svg width="21" height="20" viewBox="0 0 21 20" fill="none" xmlns="http://www.w3.org/2000/svg">
<g clip-path="url(#clip0_133_374)">
<path d="M20.2617 10.1873C20.2617 9.36792 20.1952 8.76998 20.0513 8.1499H10.6946V11.8482H16.1868C16.0761 12.7673 15.4782 14.1514 14.1494 15.0815L14.1307 15.2053L17.0891 17.4972L17.2941 17.5176C19.1765 15.7791 20.2617 13.2213 20.2617 10.1873Z" fill="#4285F4"/>
<path d="M10.6947 19.9312C13.3854 19.9312 15.6442 19.0453 17.2941 17.5173L14.1494 15.0812C13.3079 15.6681 12.1784 16.0777 10.6947 16.0777C8.05932 16.0777 5.8226 14.3393 5.02527 11.9365L4.9084 11.9464L1.83222 14.3271L1.79199 14.439C3.43077 17.6944 6.79695 19.9312 10.6947 19.9312Z" fill="#34A853"/>
<path d="M5.02526 11.9368C4.81488 11.3167 4.69313 10.6523 4.69313 9.96583C4.69313 9.27927 4.81488 8.61492 5.0142 7.99484L5.00862 7.86278L1.89389 5.44385L1.79198 5.49232C1.11656 6.84324 0.729004 8.36026 0.729004 9.96583C0.729004 11.5714 1.11656 13.0884 1.79198 14.4393L5.02526 11.9368Z" fill="#FBBC05"/>
<path d="M10.6947 3.85336C12.566 3.85336 13.8283 4.66168 14.548 5.33718L17.3605 2.59107C15.6332 0.985496 13.3854 0 10.6947 0C6.79695 0 3.43077 2.23672 1.79199 5.49214L5.01421 7.99466C5.8226 5.59183 8.05932 3.85336 10.6947 3.85336Z" fill="#EB4335"/>
</g>
<defs>
<clipPath id="clip0_133_374">
<rect width="19.542" height="20" fill="white" transform="translate(0.729004)"/>
</clipPath>
</defs>
</svg>
