<svg width="56" height="74" viewBox="0 0 56 74" fill="none" xmlns="http://www.w3.org/2000/svg">
<path d="M33.7121 34.2606L30.3282 29.2871L26.9831 36.69C26.796 37.11 26.4349 37.3592 26.0239 37.3592L26.0197 37.3597C25.6086 37.3597 25.2481 37.1132 25.0604 36.6953L22.6924 31.5395L21.2743 34.1607C21.0115 34.6517 20.4407 34.9918 19.8835 34.9918H13.8488C13.3715 34.9918 12.9878 35.3776 12.9878 35.8527C12.9878 36.3279 13.3715 36.7158 13.8488 36.7158H19.5392C21.2291 38.6222 23.7362 40.3489 27.3163 41.5842C31.9539 39.9857 34.8039 37.5721 36.3792 34.9918H35.0935C34.5731 34.996 34.0023 34.6948 33.7121 34.2607L33.7121 34.2606Z" fill="#FF3F6D"/>
<path d="M41.8488 31.5707H37.7588C38.6519 27.3626 36.768 23.4439 34.1946 22.5237C29.5755 20.8726 27.3169 25.0494 27.3169 25.0494C27.3169 25.0494 25.0608 20.8728 20.4391 22.5237C17.5188 23.567 15.4888 28.4674 17.3837 33.2716H19.7974L21.791 29.5817C22.0013 29.1912 22.3666 28.9631 22.7729 28.9767C23.1792 28.9904 23.5309 29.2395 23.7185 29.6459L26.0154 34.6513L29.217 27.5707C29.3905 27.1823 29.7305 26.9289 30.1211 26.8947C30.5185 26.8537 30.8927 27.0524 31.1282 27.4062L35.1335 33.2926H41.8468C42.3193 33.2926 42.7078 32.9042 42.7078 32.4295C42.7072 31.9544 42.3214 31.5707 41.8489 31.5707L41.8488 31.5707Z" fill="#FF3F6D"/>
<path d="M50.5145 9.6744H40.8461L40.8466 7.81317C40.8466 6.36975 39.6729 5.19867 38.2296 5.19867H35.9647C34.3778 2.35341 31.3408 0.426514 27.8517 0.426514C24.3605 0.426514 21.3234 2.35395 19.7339 5.19867H17.469C16.0236 5.19867 14.852 6.37029 14.852 7.81317V9.67171L5.17942 9.67224C2.54865 9.67224 0.407264 11.8142 0.407264 14.4444L0.406738 68.7258C0.406738 71.3566 2.54866 73.498 5.1789 73.498H50.5148C53.1455 73.498 55.2869 71.356 55.2869 68.7258L55.2875 14.4457C55.2875 11.8135 53.1455 9.67358 50.5148 9.67358L50.5145 9.6744ZM5.17998 68.7259V14.4459H14.8484V17.0514C14.8484 18.4968 16.0221 19.6659 17.4654 19.6659H38.2266C39.6721 19.6659 40.8437 18.4969 40.8437 17.0514L40.8426 14.4459H50.511L50.5158 68.7259H5.17998Z" fill="#FF3F6D"/>
<path d="M31.3101 48.8211C31.3101 49.1018 31.082 49.3305 30.8007 49.3305L11.7713 49.33C11.4906 49.33 11.262 49.1018 11.262 48.8206V46.7859C11.262 46.5053 11.4901 46.2766 11.7713 46.2766H30.8021C31.0828 46.2766 31.3114 46.5047 31.3114 46.7859L31.3101 48.8211Z" fill="#FF3F6D"/>
<path d="M39.4444 50.9769C38.8919 50.9769 38.3779 50.7141 38.0262 50.251L34.0667 45.061L36.2475 43.3964L39.3507 47.4652L44.4224 39.1399L46.7631 40.5669L40.9607 50.1001C40.6385 50.6252 40.1229 50.9448 39.5337 50.9769C39.5016 50.9742 39.4764 50.9769 39.4443 50.9769L39.4444 50.9769Z" fill="#FF3F6D"/>
<path d="M31.3101 62.5422C31.3101 62.8229 31.082 63.0489 30.8007 63.0489L11.7713 63.0494C11.4906 63.0494 11.262 62.8234 11.262 62.5428V60.5059C11.262 60.2252 11.4901 59.9966 11.7713 59.9966H30.8021C31.0828 59.9966 31.3114 60.2247 31.3114 60.5059L31.3101 62.5422Z" fill="#FF3F6D"/>
<path d="M39.4444 64.6965C38.8919 64.6965 38.3779 64.4337 38.0262 63.9706L34.0667 58.7806L36.2475 57.116L39.3507 61.1828L44.4224 52.8574L46.7631 54.2844L40.9607 63.8203C40.6385 64.3433 40.1229 64.665 39.5337 64.697C39.5016 64.6965 39.4764 64.6965 39.4443 64.6965L39.4444 64.6965Z" fill="#FF3F6D"/>
</svg>
