<svg width="24" height="19" viewBox="0 0 24 19" fill="none" xmlns="http://www.w3.org/2000/svg">
<path d="M11.6818 5.16967L4.00032 11.2715V17.8571C4.00032 18.0276 4.07055 18.1911 4.19556 18.3117C4.32058 18.4323 4.49013 18.5 4.66693 18.5L9.33574 18.4883C9.51196 18.4875 9.68066 18.4194 9.80495 18.2989C9.92925 18.1784 9.99902 18.0154 9.99902 17.8454V13.9995C9.99902 13.829 10.0693 13.6655 10.1943 13.5449C10.3193 13.4243 10.4888 13.3566 10.6656 13.3566H13.3321C13.5089 13.3566 13.6784 13.4243 13.8035 13.5449C13.9285 13.6655 13.9987 13.829 13.9987 13.9995V17.8426C13.9984 17.9272 14.0155 18.011 14.0489 18.0893C14.0822 18.1675 14.1313 18.2386 14.1932 18.2985C14.2551 18.3584 14.3287 18.406 14.4097 18.4384C14.4908 18.4708 14.5776 18.4875 14.6653 18.4875L19.3325 18.5C19.5093 18.5 19.6788 18.4323 19.8038 18.3117C19.9289 18.1911 19.9991 18.0276 19.9991 17.8571V11.267L12.3193 5.16967C12.229 5.09948 12.1165 5.06121 12.0005 5.06121C11.8846 5.06121 11.7721 5.09948 11.6818 5.16967ZM23.8155 9.31697L20.3324 6.54795V0.982197C20.3324 0.85431 20.2797 0.731662 20.186 0.641232C20.0922 0.550803 19.965 0.5 19.8324 0.5H17.4993C17.3667 0.5 17.2395 0.550803 17.1457 0.641232C17.052 0.731662 16.9993 0.85431 16.9993 0.982197V3.89989L13.2692 0.940004C12.9112 0.655902 12.462 0.500568 11.9984 0.500568C11.5349 0.500568 11.0857 0.655902 10.7277 0.940004L0.181444 9.31697C0.130818 9.35732 0.0889323 9.40691 0.0581813 9.46288C0.0274303 9.51886 0.00841634 9.58013 0.00222573 9.64319C-0.00396488 9.70626 0.00278923 9.76988 0.0221021 9.83043C0.041415 9.89097 0.0729082 9.94726 0.114782 9.99606L1.1772 11.2417C1.21896 11.2907 1.27033 11.3313 1.32835 11.3611C1.38638 11.3909 1.44994 11.4093 1.51538 11.4154C1.58082 11.4215 1.64686 11.4151 1.70973 11.3965C1.77259 11.378 1.83104 11.3476 1.88173 11.3072L11.6818 3.52217C11.7721 3.45198 11.8846 3.4137 12.0005 3.4137C12.1165 3.4137 12.229 3.45198 12.3193 3.52217L22.1198 11.3072C22.1704 11.3476 22.2287 11.378 22.2915 11.3966C22.3543 11.4152 22.4202 11.4218 22.4856 11.4158C22.551 11.4098 22.6145 11.3915 22.6726 11.3618C22.7306 11.3322 22.782 11.2918 22.8239 11.2429L23.8863 9.99726C23.9281 9.94818 23.9595 9.89161 23.9786 9.83079C23.9976 9.76998 24.0041 9.70613 23.9975 9.64291C23.9909 9.5797 23.9714 9.51836 23.9402 9.46242C23.909 9.40648 23.8666 9.35705 23.8155 9.31697Z" fill="white" fill-opacity="0.5"/>
</svg>
