<svg width="24" height="24" viewBox="0 0 24 24" fill="none" xmlns="http://www.w3.org/2000/svg">
<path d="M12.1406 0C5.98768 0 1 4.98768 1 11.1406C1 17.2936 5.98768 22.2812 12.1406 22.2812C18.2936 22.2812 23.2812 17.2936 23.2812 11.1406C23.2812 4.98768 18.2936 0 12.1406 0ZM15.8372 16.0641C15.6621 16.2384 15.4783 16.4212 15.3292 16.5708C15.1949 16.7055 15.1001 16.8718 15.052 17.0519C14.9842 17.3062 14.9294 17.5631 14.8377 17.8097L14.0565 19.9143C13.4384 20.0491 12.7987 20.125 12.1406 20.125V18.895C12.2165 18.3281 11.7974 17.2662 11.124 16.5928C10.8545 16.3233 10.7031 15.9576 10.7031 15.5762V14.1383C10.7031 13.6154 10.4215 13.1347 9.96371 12.8818C9.31818 12.5247 8.39998 12.0256 7.77107 11.7089C7.25537 11.4492 6.7783 11.1186 6.3493 10.7318L6.31336 10.6995C6.00657 10.4226 5.73419 10.1098 5.50207 9.76781C5.0807 9.14924 4.3943 8.13176 3.94822 7.47051C4.86777 5.42656 6.52494 3.78512 8.58416 2.89342L9.66273 3.43293C10.1407 3.67191 10.7031 3.32467 10.7031 2.7901V2.28248C11.0621 2.22453 11.4273 2.1877 11.7988 2.17377L13.0701 3.44506C13.3508 3.72582 13.3508 4.18088 13.0701 4.46164L12.8594 4.67188L12.3949 5.13637C12.2547 5.27652 12.2547 5.50428 12.3949 5.64443L12.6056 5.85512C12.7457 5.99527 12.7457 6.22303 12.6056 6.36318L12.2462 6.72256C12.1787 6.7899 12.0873 6.82771 11.9919 6.82768H11.5881C11.4946 6.82768 11.4048 6.86406 11.3374 6.92965L10.8918 7.36314C10.8372 7.41634 10.8009 7.48551 10.7881 7.56068C10.7753 7.63585 10.7868 7.71313 10.8208 7.78137L11.5212 9.18248C11.6406 9.42146 11.4668 9.70268 11.2 9.70268H10.9466C10.8599 9.70268 10.7763 9.67123 10.7112 9.61463L10.2943 9.25256C10.2 9.17072 10.086 9.11484 9.96351 9.09043C9.84103 9.06601 9.71431 9.07389 9.5958 9.1133L8.19559 9.58004C8.08868 9.61568 7.99571 9.68407 7.92984 9.7755C7.86397 9.86693 7.82854 9.97677 7.82857 10.0895C7.82857 10.2929 7.94357 10.4785 8.12551 10.5697L8.62324 10.8185C9.04596 11.0301 9.51225 11.1402 9.98482 11.1402C10.4574 11.1402 10.9996 12.3661 11.4223 12.5777H14.4209C14.8022 12.5777 15.1675 12.7291 15.4374 12.9986L16.0524 13.6136C16.3093 13.8706 16.4536 14.2191 16.4536 14.5825C16.4535 14.8579 16.399 15.1305 16.2932 15.3848C16.1875 15.639 16.0325 15.8699 15.8372 16.0641ZM19.7324 11.9604C19.4723 11.8953 19.2455 11.7358 19.0968 11.5126L18.2891 10.301C18.1709 10.124 18.1078 9.91596 18.1078 9.70312C18.1078 9.49029 18.1709 9.28222 18.2891 9.10522L19.1691 7.78541C19.2733 7.62953 19.4162 7.50285 19.5842 7.4193L20.1673 7.12775C20.7746 8.33705 21.125 9.69729 21.125 11.1406C21.125 11.5301 21.0918 11.9115 21.0432 12.2879L19.7324 11.9604Z" fill="#4A545E"/>
</svg>
