<svg width="21" height="21" viewBox="0 0 21 21" fill="none" xmlns="http://www.w3.org/2000/svg">
<path d="M4.49996 10.8932C4.49996 11.2614 4.20148 11.5599 3.83329 11.5599C3.4651 11.5599 3.16663 11.2614 3.16663 10.8932C3.16663 10.525 3.4651 10.2266 3.83329 10.2266C4.20148 10.2266 4.49996 10.525 4.49996 10.8932Z" stroke="white" stroke-opacity="0.62" stroke-width="2"/>
<path d="M11.1666 10.8932C11.1666 11.2614 10.8681 11.5599 10.5 11.5599C10.1318 11.5599 9.83329 11.2614 9.83329 10.8932C9.83329 10.525 10.1318 10.2266 10.5 10.2266C10.8681 10.2266 11.1666 10.525 11.1666 10.8932Z" stroke="white" stroke-opacity="0.62" stroke-width="2"/>
<path d="M17.8333 10.8932C17.8333 11.2614 17.5348 11.5599 17.1666 11.5599C16.7984 11.5599 16.5 11.2614 16.5 10.8932C16.5 10.525 16.7984 10.2266 17.1666 10.2266C17.5348 10.2266 17.8333 10.525 17.8333 10.8932Z" stroke="white" stroke-opacity="0.62" stroke-width="2"/>
</svg>
