<svg width="131" height="43" viewBox="0 0 131 43" fill="none" xmlns="http://www.w3.org/2000/svg">
<g filter="url(#filter0_d_500_378)">
<rect y="0.5" width="131" height="40" rx="20" fill="white" shape-rendering="crispEdges"/>
<g clip-path="url(#clip0_500_378)">
<path d="M19.8462 32.5C21.2 32.5 22.3077 31.3923 22.3077 30.0385H17.3846C17.3846 31.3923 18.48 32.5 19.8462 32.5ZM27.2308 25.1154V18.9615C27.2308 15.1831 25.2123 12.02 21.6923 11.1831V10.3462C21.6923 9.32462 20.8677 8.5 19.8462 8.5C18.8246 8.5 18 9.32462 18 10.3462V11.1831C14.4677 12.02 12.4615 15.1708 12.4615 18.9615V25.1154L10 27.5769V28.8077H29.6923V27.5769L27.2308 25.1154Z" fill="#1C6BA4"/>
</g>
<path d="M45.4076 15.3182V25.5H43.767L38.9694 18.5646H38.8849V25.5H37.0404V15.3182H38.691L43.4836 22.2585H43.5731V15.3182H45.4076ZM50.6688 25.6491C49.923 25.6491 49.2767 25.4851 48.7298 25.157C48.183 24.8288 47.7587 24.3698 47.4571 23.7798C47.1588 23.1899 47.0097 22.5005 47.0097 21.7116C47.0097 20.9228 47.1588 20.2318 47.4571 19.6385C47.7587 19.0452 48.183 18.5845 48.7298 18.2564C49.2767 17.9283 49.923 17.7642 50.6688 17.7642C51.4145 17.7642 52.0608 17.9283 52.6077 18.2564C53.1546 18.5845 53.5771 19.0452 53.8754 19.6385C54.1771 20.2318 54.3279 20.9228 54.3279 21.7116C54.3279 22.5005 54.1771 23.1899 53.8754 23.7798C53.5771 24.3698 53.1546 24.8288 52.6077 25.157C52.0608 25.4851 51.4145 25.6491 50.6688 25.6491ZM50.6787 24.2074C51.0831 24.2074 51.4211 24.0964 51.6929 23.8743C51.9647 23.6489 52.1669 23.3473 52.2994 22.9695C52.4353 22.5916 52.5033 22.1707 52.5033 21.7067C52.5033 21.2393 52.4353 20.8168 52.2994 20.4389C52.1669 20.0578 51.9647 19.7545 51.6929 19.5291C51.4211 19.3037 51.0831 19.1911 50.6787 19.1911C50.2644 19.1911 49.9197 19.3037 49.6446 19.5291C49.3728 19.7545 49.169 20.0578 49.0331 20.4389C48.9005 20.8168 48.8343 21.2393 48.8343 21.7067C48.8343 22.1707 48.9005 22.5916 49.0331 22.9695C49.169 23.3473 49.3728 23.6489 49.6446 23.8743C49.9197 24.0964 50.2644 24.2074 50.6787 24.2074ZM59.6686 17.8636V19.2557H55.2787V17.8636H59.6686ZM56.3625 16.0341H58.1622V23.2031C58.1622 23.4451 58.1987 23.6307 58.2716 23.7599C58.3478 23.8859 58.4472 23.9721 58.5699 24.0185C58.6925 24.0649 58.8284 24.0881 58.9775 24.0881C59.0902 24.0881 59.193 24.0798 59.2858 24.0632C59.3819 24.0466 59.4548 24.0317 59.5045 24.0185L59.8078 25.4254C59.7117 25.4586 59.5741 25.495 59.3952 25.5348C59.2195 25.5746 59.0041 25.5978 58.7488 25.6044C58.2981 25.6177 57.8921 25.5497 57.5308 25.4006C57.1695 25.2481 56.8828 25.0128 56.6707 24.6946C56.4619 24.3764 56.3592 23.9787 56.3625 23.5014V16.0341ZM61.1737 25.5V17.8636H62.9735V25.5H61.1737ZM62.0786 16.7798C61.7935 16.7798 61.5483 16.6854 61.3428 16.4964C61.1373 16.3042 61.0345 16.0739 61.0345 15.8054C61.0345 15.5336 61.1373 15.3033 61.3428 15.1143C61.5483 14.9221 61.7935 14.826 62.0786 14.826C62.3669 14.826 62.6122 14.9221 62.8144 15.1143C63.0199 15.3033 63.1226 15.5336 63.1226 15.8054C63.1226 16.0739 63.0199 16.3042 62.8144 16.4964C62.6122 16.6854 62.3669 16.7798 62.0786 16.7798ZM68.692 17.8636V19.2557H64.1778V17.8636H68.692ZM65.3064 25.5V17.1428C65.3064 16.629 65.4124 16.2015 65.6246 15.8601C65.84 15.5187 66.1283 15.2635 66.4896 15.0945C66.8509 14.9254 67.2519 14.8409 67.6927 14.8409C68.0043 14.8409 68.281 14.8658 68.523 14.9155C68.7649 14.9652 68.9439 15.0099 69.0599 15.0497L68.702 16.4418C68.6257 16.4186 68.5296 16.3954 68.4136 16.3722C68.2976 16.3456 68.1684 16.3324 68.0258 16.3324C67.6911 16.3324 67.4541 16.4136 67.3149 16.576C67.179 16.7351 67.1111 16.9638 67.1111 17.2621V25.5H65.3064ZM70.1015 25.5V17.8636H71.9012V25.5H70.1015ZM71.0063 16.7798C70.7213 16.7798 70.476 16.6854 70.2705 16.4964C70.065 16.3042 69.9623 16.0739 69.9623 15.8054C69.9623 15.5336 70.065 15.3033 70.2705 15.1143C70.476 14.9221 70.7213 14.826 71.0063 14.826C71.2947 14.826 71.5399 14.9221 71.7421 15.1143C71.9476 15.3033 72.0503 15.5336 72.0503 15.8054C72.0503 16.0739 71.9476 16.3042 71.7421 16.4964C71.5399 16.6854 71.2947 16.7798 71.0063 16.7798ZM77.0828 25.6491C76.3205 25.6491 75.6659 25.4818 75.1191 25.147C74.5755 24.8123 74.1562 24.3499 73.8612 23.7599C73.5696 23.1667 73.4237 22.4839 73.4237 21.7116C73.4237 20.9361 73.5729 20.2517 73.8712 19.6584C74.1695 19.0618 74.5904 18.5978 75.134 18.2663C75.6808 17.9316 76.3271 17.7642 77.0729 17.7642C77.6927 17.7642 78.2412 17.8786 78.7185 18.1072C79.1991 18.3326 79.5819 18.6525 79.8669 19.0668C80.152 19.4777 80.3144 19.9583 80.3541 20.5085H78.634C78.5644 20.1406 78.3986 19.834 78.1368 19.5888C77.8783 19.3402 77.5319 19.2159 77.0977 19.2159C76.7298 19.2159 76.4067 19.3153 76.1283 19.5142C75.8499 19.7098 75.6328 19.9915 75.477 20.3594C75.3245 20.7273 75.2483 21.1681 75.2483 21.6818C75.2483 22.2022 75.3245 22.6496 75.477 23.0241C75.6295 23.3954 75.8432 23.6821 76.1183 23.8842C76.3968 24.0831 76.7232 24.1825 77.0977 24.1825C77.3629 24.1825 77.5999 24.1328 77.8087 24.0334C78.0208 23.9306 78.1981 23.7831 78.3406 23.5909C78.4832 23.3987 78.5809 23.165 78.634 22.8899H80.3541C80.311 23.4302 80.152 23.9091 79.8769 24.3267C79.6018 24.741 79.2272 25.0658 78.7533 25.3011C78.2793 25.5331 77.7225 25.6491 77.0828 25.6491ZM84.0294 25.6541C83.5455 25.6541 83.1096 25.5679 82.7219 25.3956C82.3374 25.2199 82.0325 24.9614 81.8071 24.62C81.585 24.2786 81.474 23.8577 81.474 23.3572C81.474 22.9264 81.5535 22.5701 81.7126 22.2884C81.8717 22.0066 82.0888 21.7812 82.3639 21.6122C82.639 21.4432 82.9489 21.3156 83.2936 21.2294C83.6416 21.1399 84.0012 21.0753 84.3724 21.0355C84.8199 20.9891 85.1828 20.9477 85.4612 20.9112C85.7396 20.8714 85.9418 20.8118 86.0677 20.7322C86.197 20.6494 86.2616 20.5218 86.2616 20.3494V20.3196C86.2616 19.9451 86.1506 19.6551 85.9285 19.4496C85.7065 19.2441 85.3866 19.1413 84.969 19.1413C84.5282 19.1413 84.1785 19.2375 83.92 19.4297C83.6648 19.6219 83.4925 19.849 83.403 20.1108L81.7226 19.8722C81.8551 19.4081 82.0739 19.0204 82.3788 18.7088C82.6837 18.3939 83.0566 18.1586 83.4974 18.0028C83.9382 17.8438 84.4255 17.7642 84.9591 17.7642C85.327 17.7642 85.6932 17.8073 86.0578 17.8935C86.4224 17.9796 86.7555 18.1222 87.0571 18.321C87.3587 18.5166 87.6006 18.7834 87.7829 19.1214C87.9685 19.4595 88.0613 19.8821 88.0613 20.3892V25.5H86.3312V24.451H86.2716C86.1622 24.6631 86.0081 24.862 85.8092 25.0476C85.6137 25.2299 85.3667 25.3774 85.0684 25.4901C84.7735 25.5994 84.4271 25.6541 84.0294 25.6541ZM84.4967 24.3317C84.858 24.3317 85.1712 24.2604 85.4363 24.1179C85.7015 23.9721 85.9053 23.7798 86.0479 23.5412C86.1937 23.3026 86.2666 23.0424 86.2666 22.7607V21.8608C86.2103 21.9072 86.1141 21.9503 85.9782 21.9901C85.8457 22.0298 85.6965 22.0646 85.5308 22.0945C85.3651 22.1243 85.201 22.1508 85.0386 22.174C84.8762 22.1972 84.7354 22.2171 84.616 22.2337C84.3476 22.2701 84.1073 22.3298 83.8952 22.4126C83.683 22.4955 83.5157 22.6115 83.393 22.7607C83.2704 22.9065 83.2091 23.0954 83.2091 23.3274C83.2091 23.6589 83.33 23.9091 83.572 24.0781C83.814 24.2472 84.1222 24.3317 84.4967 24.3317ZM93.6842 17.8636V19.2557H89.2943V17.8636H93.6842ZM90.3781 16.0341H92.1778V23.2031C92.1778 23.4451 92.2143 23.6307 92.2872 23.7599C92.3634 23.8859 92.4629 23.9721 92.5855 24.0185C92.7081 24.0649 92.844 24.0881 92.9932 24.0881C93.1059 24.0881 93.2086 24.0798 93.3014 24.0632C93.3975 24.0466 93.4704 24.0317 93.5202 24.0185L93.8234 25.4254C93.7273 25.4586 93.5898 25.495 93.4108 25.5348C93.2351 25.5746 93.0197 25.5978 92.7645 25.6044C92.3137 25.6177 91.9077 25.5497 91.5464 25.4006C91.1852 25.2481 90.8985 25.0128 90.6863 24.6946C90.4775 24.3764 90.3748 23.9787 90.3781 23.5014V16.0341ZM95.1894 25.5V17.8636H96.9891V25.5H95.1894ZM96.0942 16.7798C95.8092 16.7798 95.5639 16.6854 95.3584 16.4964C95.1529 16.3042 95.0502 16.0739 95.0502 15.8054C95.0502 15.5336 95.1529 15.3033 95.3584 15.1143C95.5639 14.9221 95.8092 14.826 96.0942 14.826C96.3825 14.826 96.6278 14.9221 96.83 15.1143C97.0355 15.3033 97.1382 15.5336 97.1382 15.8054C97.1382 16.0739 97.0355 16.3042 96.83 16.4964C96.6278 16.6854 96.3825 16.7798 96.0942 16.7798ZM102.171 25.6491C101.425 25.6491 100.779 25.4851 100.232 25.157C99.6849 24.8288 99.2607 24.3698 98.9591 23.7798C98.6608 23.1899 98.5116 22.5005 98.5116 21.7116C98.5116 20.9228 98.6608 20.2318 98.9591 19.6385C99.2607 19.0452 99.6849 18.5845 100.232 18.2564C100.779 17.9283 101.425 17.7642 102.171 17.7642C102.916 17.7642 103.563 17.9283 104.11 18.2564C104.657 18.5845 105.079 19.0452 105.377 19.6385C105.679 20.2318 105.83 20.9228 105.83 21.7116C105.83 22.5005 105.679 23.1899 105.377 23.7798C105.079 24.3698 104.657 24.8288 104.11 25.157C103.563 25.4851 102.916 25.6491 102.171 25.6491ZM102.181 24.2074C102.585 24.2074 102.923 24.0964 103.195 23.8743C103.467 23.6489 103.669 23.3473 103.801 22.9695C103.937 22.5916 104.005 22.1707 104.005 21.7067C104.005 21.2393 103.937 20.8168 103.801 20.4389C103.669 20.0578 103.467 19.7545 103.195 19.5291C102.923 19.3037 102.585 19.1911 102.181 19.1911C101.766 19.1911 101.422 19.3037 101.147 19.5291C100.875 19.7545 100.671 20.0578 100.535 20.4389C100.402 20.8168 100.336 21.2393 100.336 21.7067C100.336 22.1707 100.402 22.5916 100.535 22.9695C100.671 23.3473 100.875 23.6489 101.147 23.8743C101.422 24.0964 101.766 24.2074 102.181 24.2074ZM109.157 21.0256V25.5H107.357V17.8636H109.078V19.1612H109.167C109.343 18.7337 109.623 18.3939 110.007 18.142C110.395 17.8902 110.874 17.7642 111.444 17.7642C111.971 17.7642 112.43 17.8769 112.821 18.1023C113.216 18.3277 113.52 18.6541 113.736 19.0817C113.955 19.5092 114.062 20.0279 114.059 20.6378V25.5H112.259V20.9162C112.259 20.4058 112.127 20.0064 111.862 19.718C111.6 19.4297 111.237 19.2855 110.773 19.2855C110.458 19.2855 110.178 19.3551 109.933 19.4943C109.691 19.6302 109.5 19.8274 109.361 20.0859C109.225 20.3445 109.157 20.6577 109.157 21.0256Z" fill="#1C6BA4"/>
</g>
<defs>
<filter id="filter0_d_500_378" x="0" y="0.5" width="131" height="42" filterUnits="userSpaceOnUse" color-interpolation-filters="sRGB">
<feFlood flood-opacity="0" result="BackgroundImageFix"/>
<feColorMatrix in="SourceAlpha" type="matrix" values="0 0 0 0 0 0 0 0 0 0 0 0 0 0 0 0 0 0 127 0" result="hardAlpha"/>
<feOffset dy="2"/>
<feComposite in2="hardAlpha" operator="out"/>
<feColorMatrix type="matrix" values="0 0 0 0 0.552941 0 0 0 0 0.709804 0 0 0 0 0.819608 0 0 0 1 0"/>
<feBlend mode="normal" in2="BackgroundImageFix" result="effect1_dropShadow_500_378"/>
<feBlend mode="normal" in="SourceGraphic" in2="effect1_dropShadow_500_378" result="shape"/>
</filter>
<clipPath id="clip0_500_378">
<rect width="24" height="24" fill="white" transform="translate(8 8.5)"/>
</clipPath>
</defs>
</svg>
