<svg width="21" height="22" viewBox="0 0 21 22" fill="none" xmlns="http://www.w3.org/2000/svg">
<path d="M20.4296 15.1327L16.0546 13.2577C15.8677 13.178 15.6599 13.1612 15.4627 13.2099C15.2654 13.2585 15.0893 13.3698 14.9608 13.5272L13.0233 15.8944C9.98248 14.4607 7.53535 12.0136 6.10165 8.97283L8.46888 7.0353C8.62657 6.90705 8.73818 6.73091 8.78681 6.53355C8.83545 6.3362 8.81846 6.12837 8.73842 5.94153L6.86338 1.56645C6.77554 1.36505 6.62016 1.2006 6.42406 1.10148C6.22796 1.00236 6.00341 0.974773 5.78915 1.02347L1.72658 1.96099C1.52 2.00869 1.33569 2.12501 1.20373 2.29095C1.07177 2.45689 0.999952 2.66266 1 2.87468C1 12.8944 9.12123 21 19.1253 21C19.3374 21.0001 19.5433 20.9284 19.7093 20.7964C19.8753 20.6644 19.9917 20.4801 20.0394 20.2734L20.9769 16.2109C21.0253 15.9955 20.9971 15.7701 20.8972 15.5733C20.7973 15.3765 20.632 15.2207 20.4296 15.1327Z" fill="#0060F7"/>
</svg>
