<svg width="14" height="14" viewBox="0 0 14 14" fill="none" xmlns="http://www.w3.org/2000/svg">
<path d="M7.41848 0.272583C7.33986 0.105672 7.17763 0 7 0C6.82237 0 6.66014 0.105672 6.58152 0.272583L4.6711 4.32877L0.399615 4.97874C0.223819 5.00549 0.0777621 5.1345 0.0228605 5.31153C-0.0320411 5.48855 0.013735 5.68289 0.14094 5.81281L3.23191 8.96993L2.50203 13.4283C2.472 13.6118 2.54397 13.7972 2.68768 13.9066C2.83139 14.016 3.02192 14.0304 3.17915 13.9438L7 11.8389L10.8209 13.9438C10.9781 14.0304 11.1686 14.016 11.3123 13.9066C11.456 13.7972 11.528 13.6118 11.498 13.4283L10.7681 8.96993L13.8591 5.81281C13.9863 5.68289 14.032 5.48855 13.9771 5.31153C13.9222 5.1345 13.7762 5.00549 13.6004 4.97874L9.3289 4.32877L7.41848 0.272583Z" fill="#F8B635"/>
</svg>
