<svg width="25" height="25" viewBox="0 0 25 25" fill="none" xmlns="http://www.w3.org/2000/svg">
<g clip-path="url(#clip0_488_151)">
<path d="M19.9756 8.91L15.6822 4.08C15.3533 3.71 14.9 3.5 14.4289 3.5H6.27778C5.3 3.5 4.5 4.4 4.5 5.5V19.5C4.5 20.6 5.3 21.5 6.27778 21.5H18.7222C19.7 21.5 20.5 20.6 20.5 19.5V10.33C20.5 9.8 20.3133 9.29 19.9756 8.91ZM8.05556 7.5H14.2778V9.5H8.05556V7.5ZM16.9444 17.5H8.05556V15.5H16.9444V17.5ZM16.9444 13.5H8.05556V11.5H16.9444V13.5Z" fill="white" fill-opacity="0.5"/>
</g>
<defs>
<clipPath id="clip0_488_151">
<rect width="16" height="18" fill="white" transform="translate(4.5 3.5)"/>
</clipPath>
</defs>
</svg>
