<svg width="64" height="66" viewBox="0 0 64 66" fill="none" xmlns="http://www.w3.org/2000/svg">
<path d="M36.5513 33.0544L34.0632 29.2832L31.6037 34.8965C31.4661 35.215 31.2006 35.4039 30.8984 35.4039L30.8953 35.4043C30.5931 35.4043 30.3279 35.2174 30.19 34.9005L28.4488 30.9911L27.4061 32.9787C27.2129 33.3509 26.7932 33.6088 26.3835 33.6088H21.9463C21.5954 33.6088 21.3132 33.9013 21.3132 34.2616C21.3132 34.6219 21.5954 34.9161 21.9463 34.9161H26.1303C27.3729 36.3616 29.2163 37.6709 31.8487 38.6075C35.2586 37.3955 37.3541 35.5654 38.5124 33.6088H37.5671C37.1845 33.612 36.7647 33.3837 36.5514 33.0544L36.5513 33.0544Z" fill="#FF3F6D"/>
<path d="M42.5341 31.0148H39.5269C40.1835 27.824 38.7984 24.8527 36.9062 24.1549C33.5098 22.903 31.8491 26.07 31.8491 26.07C31.8491 26.07 30.1903 22.9031 26.7921 24.1549C24.6448 24.9461 23.1522 28.6618 24.5455 32.3046H26.3202L27.7861 29.5067C27.9407 29.2106 28.2093 29.0376 28.5081 29.048C28.8068 29.0584 29.0654 29.2473 29.2033 29.5554L30.8922 33.3508L33.2463 27.9818C33.3738 27.6873 33.6239 27.4952 33.911 27.4693C34.2032 27.4382 34.4784 27.5889 34.6515 27.8571L37.5965 32.3205H42.5327C42.8801 32.3205 43.1657 32.026 43.1657 31.6661C43.1653 31.3058 42.8817 31.0149 42.5342 31.0149L42.5341 31.0148Z" fill="#FF3F6D"/>
<path d="M48.9058 14.4119H41.7968L41.7972 13.0006C41.7972 11.9061 40.9342 11.0182 39.8729 11.0182H38.2076C37.0408 8.86074 34.8078 7.39966 32.2423 7.39966C29.6753 7.39966 27.4422 8.86114 26.2735 11.0182H24.6082C23.5454 11.0182 22.6839 11.9066 22.6839 13.0006V14.4099L15.5719 14.4103C13.6375 14.4103 12.063 16.0344 12.063 18.0288L12.0626 59.188C12.0626 61.1828 13.6375 62.8065 15.5715 62.8065H48.906C50.8403 62.8065 52.4148 61.1824 52.4148 59.188L52.4152 18.0298C52.4152 16.0339 50.8403 14.4113 48.906 14.4113L48.9058 14.4119ZM15.5723 59.1881V18.0299H22.6812V20.0055C22.6812 21.1016 23.5442 21.988 24.6055 21.988H39.8708C40.9336 21.988 41.795 21.1016 41.795 20.0055L41.7943 18.0299H48.9032L48.9067 59.1881H15.5723Z" fill="#FF3F6D"/>
<path d="M34.7852 44.0952C34.7852 44.308 34.6175 44.4814 34.4107 44.4814L20.4188 44.481C20.2124 44.481 20.0443 44.308 20.0443 44.0948V42.552C20.0443 42.3392 20.212 42.1658 20.4188 42.1658H34.4117C34.6181 42.1658 34.7862 42.3387 34.7862 42.552L34.7852 44.0952Z" fill="#FF3F6D"/>
<path d="M40.7661 45.7296C40.3599 45.7296 39.9819 45.5303 39.7234 45.1792L36.812 41.2439L38.4155 39.9817L40.6973 43.0669L44.4264 36.7542L46.1474 37.8362L41.8811 45.0648C41.6442 45.463 41.265 45.7053 40.8318 45.7296C40.8082 45.7276 40.7897 45.7296 40.7661 45.7296L40.7661 45.7296Z" fill="#FF3F6D"/>
<path d="M34.7852 54.4993C34.7852 54.7122 34.6175 54.8835 34.4107 54.8835L20.4188 54.8839C20.2124 54.8839 20.0443 54.7126 20.0443 54.4997V52.9553C20.0443 52.7425 20.212 52.5691 20.4188 52.5691H34.4117C34.6181 52.5691 34.7862 52.7421 34.7862 52.9553L34.7852 54.4993Z" fill="#FF3F6D"/>
<path d="M40.7661 56.1325C40.3599 56.1325 39.9819 55.9333 39.7234 55.5821L36.812 51.6468L38.4155 50.3846L40.6973 53.4683L44.4264 47.1555L46.1474 48.2376L41.8811 55.4682C41.6442 55.8647 41.265 56.1086 40.8318 56.133C40.8082 56.1326 40.7897 56.1326 40.7661 56.1326L40.7661 56.1325Z" fill="#FF3F6D"/>
</svg>
