<svg width="97" height="43" viewBox="0 0 97 43" fill="none" xmlns="http://www.w3.org/2000/svg">
<g filter="url(#filter0_d_488_97)">
<rect x="0.5" y="0.5" width="96" height="40" rx="20" fill="white" shape-rendering="crispEdges"/>
<g clip-path="url(#clip0_488_97)">
<path d="M26.9756 16.91L22.6822 12.08C22.3533 11.71 21.9 11.5 21.4289 11.5H13.2778C12.3 11.5 11.5 12.4 11.5 13.5V27.5C11.5 28.6 12.3 29.5 13.2778 29.5H25.7222C26.7 29.5 27.5 28.6 27.5 27.5V18.33C27.5 17.8 27.3133 17.29 26.9756 16.91ZM15.0556 15.5H21.2778V17.5H15.0556V15.5ZM23.9444 25.5H15.0556V23.5H23.9444V25.5ZM23.9444 21.5H15.0556V19.5H23.9444V21.5Z" fill="#1C6BA4"/>
</g>
<path d="M35.5834 25.5V15.3182H39.4015C40.1837 15.3182 40.84 15.4541 41.3703 15.7259C41.9039 15.9976 42.3066 16.3788 42.5784 16.8693C42.8535 17.3565 42.991 17.925 42.991 18.5746C42.991 19.2275 42.8518 19.7943 42.5734 20.2749C42.2983 20.7521 41.8923 21.1217 41.3554 21.3835C40.8184 21.642 40.1589 21.7713 39.3767 21.7713H36.6572V20.2401H39.1281C39.5855 20.2401 39.96 20.1771 40.2517 20.0511C40.5434 19.9219 40.7588 19.7346 40.898 19.4893C41.0405 19.2408 41.1118 18.9358 41.1118 18.5746C41.1118 18.2133 41.0405 17.9051 40.898 17.6499C40.7555 17.3913 40.5384 17.1958 40.2467 17.0632C39.955 16.9273 39.5789 16.8594 39.1182 16.8594H37.4278V25.5H35.5834ZM40.8433 20.8864L43.3639 25.5H41.3057L38.8298 20.8864H40.8433ZM47.8806 25.6491C47.115 25.6491 46.4537 25.4901 45.8969 25.1719C45.3434 24.8504 44.9175 24.3963 44.6192 23.8097C44.3209 23.2197 44.1718 22.5253 44.1718 21.7266C44.1718 20.9411 44.3209 20.2517 44.6192 19.6584C44.9208 19.0618 45.3418 18.5978 45.882 18.2663C46.4223 17.9316 47.057 17.7642 47.7861 17.7642C48.2568 17.7642 48.7009 17.8404 49.1185 17.9929C49.5394 18.142 49.9107 18.3741 50.2322 18.6889C50.557 19.0038 50.8122 19.4048 50.9978 19.892C51.1834 20.3759 51.2762 20.9527 51.2762 21.6222V22.174H45.017V20.9609H49.551C49.5477 20.6162 49.4732 20.3097 49.3273 20.0412C49.1815 19.7694 48.9777 19.5556 48.7158 19.3999C48.4573 19.2441 48.1557 19.1662 47.811 19.1662C47.4431 19.1662 47.1199 19.2557 46.8415 19.4347C46.5631 19.6103 46.346 19.8423 46.1903 20.1307C46.0378 20.4157 45.9599 20.7289 45.9566 21.0703V22.1293C45.9566 22.5734 46.0378 22.9545 46.2002 23.2727C46.3626 23.5876 46.5896 23.8295 46.8813 23.9986C47.173 24.1643 47.5144 24.2472 47.9055 24.2472C48.1673 24.2472 48.4043 24.2107 48.6164 24.1378C48.8285 24.0616 49.0125 23.9505 49.1682 23.8047C49.324 23.6589 49.4417 23.4782 49.5212 23.2628L51.2016 23.4517C51.0956 23.8958 50.8934 24.2836 50.5951 24.6151C50.3001 24.9432 49.9223 25.1984 49.4616 25.3807C49.0009 25.5597 48.4739 25.6491 47.8806 25.6491ZM52.7987 28.3636V17.8636H54.5686V19.1264H54.673C54.7658 18.9408 54.8968 18.7436 55.0658 18.5348C55.2348 18.3227 55.4635 18.142 55.7519 17.9929C56.0402 17.8404 56.4081 17.7642 56.8556 17.7642C57.4455 17.7642 57.9775 17.915 58.4514 18.2166C58.9287 18.5149 59.3066 18.9574 59.585 19.544C59.8667 20.1274 60.0075 20.8433 60.0075 21.6918C60.0075 22.5303 59.87 23.2429 59.5949 23.8295C59.3198 24.4162 58.9453 24.8636 58.4713 25.1719C57.9974 25.4801 57.4604 25.6342 56.8605 25.6342C56.423 25.6342 56.0601 25.5613 55.7718 25.4155C55.4834 25.2696 55.2514 25.094 55.0757 24.8885C54.9034 24.6797 54.7691 24.4825 54.673 24.2969H54.5985V28.3636H52.7987ZM54.5637 21.6818C54.5637 22.1757 54.6333 22.6082 54.7725 22.9794C54.915 23.3506 55.1188 23.6406 55.384 23.8494C55.6524 24.0549 55.9772 24.1577 56.3584 24.1577C56.7561 24.1577 57.0892 24.0516 57.3577 23.8395C57.6262 23.6241 57.8283 23.3307 57.9642 22.9595C58.1034 22.585 58.173 22.1591 58.173 21.6818C58.173 21.2079 58.1051 20.7869 57.9692 20.419C57.8333 20.0511 57.6311 19.7628 57.3627 19.554C57.0942 19.3452 56.7594 19.2408 56.3584 19.2408C55.9739 19.2408 55.6475 19.3419 55.379 19.544C55.1105 19.7462 54.9067 20.0296 54.7675 20.3942C54.6316 20.7588 54.5637 21.188 54.5637 21.6818ZM64.8797 25.6491C64.134 25.6491 63.4877 25.4851 62.9408 25.157C62.3939 24.8288 61.9697 24.3698 61.6681 23.7798C61.3698 23.1899 61.2206 22.5005 61.2206 21.7116C61.2206 20.9228 61.3698 20.2318 61.6681 19.6385C61.9697 19.0452 62.3939 18.5845 62.9408 18.2564C63.4877 17.9283 64.134 17.7642 64.8797 17.7642C65.6254 17.7642 66.2718 17.9283 66.8186 18.2564C67.3655 18.5845 67.7881 19.0452 68.0864 19.6385C68.388 20.2318 68.5388 20.9228 68.5388 21.7116C68.5388 22.5005 68.388 23.1899 68.0864 23.7798C67.7881 24.3698 67.3655 24.8288 66.8186 25.157C66.2718 25.4851 65.6254 25.6491 64.8797 25.6491ZM64.8896 24.2074C65.294 24.2074 65.6321 24.0964 65.9039 23.8743C66.1756 23.6489 66.3778 23.3473 66.5104 22.9695C66.6463 22.5916 66.7142 22.1707 66.7142 21.7067C66.7142 21.2393 66.6463 20.8168 66.5104 20.4389C66.3778 20.0578 66.1756 19.7545 65.9039 19.5291C65.6321 19.3037 65.294 19.1911 64.8896 19.1911C64.4753 19.1911 64.1307 19.3037 63.8556 19.5291C63.5838 19.7545 63.3799 20.0578 63.2441 20.4389C63.1115 20.8168 63.0452 21.2393 63.0452 21.7067C63.0452 22.1707 63.1115 22.5916 63.2441 22.9695C63.3799 23.3473 63.5838 23.6489 63.8556 23.8743C64.1307 24.0964 64.4753 24.2074 64.8896 24.2074ZM70.0663 25.5V17.8636H71.8113V19.1364H71.8909C72.0301 18.6955 72.2687 18.3558 72.6068 18.1172C72.9482 17.8752 73.3376 17.7543 73.7751 17.7543C73.8746 17.7543 73.9856 17.7592 74.1082 17.7692C74.2342 17.7758 74.3386 17.7874 74.4214 17.804V19.4595C74.3452 19.433 74.2242 19.4098 74.0585 19.3899C73.8961 19.3667 73.7387 19.3551 73.5862 19.3551C73.2581 19.3551 72.9631 19.4264 72.7013 19.5689C72.4427 19.7081 72.2389 19.902 72.0898 20.1506C71.9406 20.3991 71.866 20.6858 71.866 21.0107V25.5H70.0663ZM79.8405 17.8636V19.2557H75.4506V17.8636H79.8405ZM76.5344 16.0341H78.3341V23.2031C78.3341 23.4451 78.3705 23.6307 78.4434 23.7599C78.5197 23.8859 78.6191 23.9721 78.7417 24.0185C78.8644 24.0649 79.0003 24.0881 79.1494 24.0881C79.2621 24.0881 79.3648 24.0798 79.4577 24.0632C79.5538 24.0466 79.6267 24.0317 79.6764 24.0185L79.9797 25.4254C79.8836 25.4586 79.746 25.495 79.567 25.5348C79.3914 25.5746 79.1759 25.5978 78.9207 25.6044C78.47 25.6177 78.064 25.5497 77.7027 25.4006C77.3414 25.2481 77.0547 25.0128 76.8426 24.6946C76.6338 24.3764 76.531 23.9787 76.5344 23.5014V16.0341Z" fill="#1C6BA4"/>
</g>
<defs>
<filter id="filter0_d_488_97" x="0.5" y="0.5" width="96" height="42" filterUnits="userSpaceOnUse" color-interpolation-filters="sRGB">
<feFlood flood-opacity="0" result="BackgroundImageFix"/>
<feColorMatrix in="SourceAlpha" type="matrix" values="0 0 0 0 0 0 0 0 0 0 0 0 0 0 0 0 0 0 127 0" result="hardAlpha"/>
<feOffset dy="2"/>
<feComposite in2="hardAlpha" operator="out"/>
<feColorMatrix type="matrix" values="0 0 0 0 0.552941 0 0 0 0 0.709804 0 0 0 0 0.819608 0 0 0 1 0"/>
<feBlend mode="normal" in2="BackgroundImageFix" result="effect1_dropShadow_488_97"/>
<feBlend mode="normal" in="SourceGraphic" in2="effect1_dropShadow_488_97" result="shape"/>
</filter>
<clipPath id="clip0_488_97">
<rect width="16" height="18" fill="white" transform="translate(11.5 11.5)"/>
</clipPath>
</defs>
</svg>
