<svg width="125" height="43" viewBox="0 0 125 43" fill="none" xmlns="http://www.w3.org/2000/svg">
<g filter="url(#filter0_d_488_407)">
<rect x="0.5" y="0.5" width="124" height="40" rx="20" fill="white" shape-rendering="crispEdges"/>
<g clip-path="url(#clip0_488_407)">
<path d="M27.8333 17.9286C27.8333 14.3768 23.9542 11.5 19.1667 11.5C14.3792 11.5 10.5 14.3768 10.5 17.9286C10.5 19.3067 11.0875 20.5763 12.0833 21.625C11.525 22.8384 10.6042 23.8027 10.5917 23.8147C10.5 23.9071 10.475 24.0437 10.5292 24.1643C10.5833 24.2848 10.7 24.3571 10.8333 24.3571C12.3583 24.3571 13.6208 23.8629 14.5292 23.3527C15.8708 23.9835 17.4583 24.3571 19.1667 24.3571C23.9542 24.3571 27.8333 21.4804 27.8333 17.9286ZM32.9167 26.7679C33.9125 25.7232 34.5 24.4496 34.5 23.0714C34.5 20.3835 32.2708 18.0812 29.1125 17.121C29.15 17.3862 29.1667 17.6554 29.1667 17.9286C29.1667 22.1835 24.6792 25.6429 19.1667 25.6429C18.7167 25.6429 18.2792 25.6107 17.8458 25.5665C19.1583 27.8768 22.2417 29.5 25.8333 29.5C27.5417 29.5 29.1292 29.1304 30.4708 28.4955C31.3792 29.0058 32.6417 29.5 34.1667 29.5C34.3 29.5 34.4208 29.4237 34.4708 29.3071C34.525 29.1906 34.5 29.054 34.4083 28.9576C34.3958 28.9455 33.475 27.9853 32.9167 26.7679Z" fill="#1C6BA4"/>
</g>
<path d="M39.9418 15.3182H42.1989L45.2216 22.696H45.3409L48.3636 15.3182H50.6207V25.5H48.8509V18.505H48.7564L45.9425 25.4702H44.62L41.8061 18.4901H41.7116V25.5H39.9418V15.3182ZM55.9304 25.6491C55.1648 25.6491 54.5036 25.4901 53.9467 25.1719C53.3932 24.8504 52.9673 24.3963 52.669 23.8097C52.3707 23.2197 52.2216 22.5253 52.2216 21.7266C52.2216 20.9411 52.3707 20.2517 52.669 19.6584C52.9706 19.0618 53.3916 18.5978 53.9318 18.2663C54.4721 17.9316 55.1068 17.7642 55.8359 17.7642C56.3066 17.7642 56.7507 17.8404 57.1683 17.9929C57.5893 18.142 57.9605 18.3741 58.282 18.6889C58.6068 19.0038 58.862 19.4048 59.0476 19.892C59.2332 20.3759 59.326 20.9527 59.326 21.6222V22.174H53.0668V20.9609H57.6009C57.5975 20.6162 57.523 20.3097 57.3771 20.0412C57.2313 19.7694 57.0275 19.5556 56.7656 19.3999C56.5071 19.2441 56.2055 19.1662 55.8608 19.1662C55.4929 19.1662 55.1697 19.2557 54.8913 19.4347C54.6129 19.6103 54.3958 19.8423 54.2401 20.1307C54.0876 20.4157 54.0097 20.7289 54.0064 21.0703V22.1293C54.0064 22.5734 54.0876 22.9545 54.25 23.2727C54.4124 23.5876 54.6394 23.8295 54.9311 23.9986C55.2228 24.1643 55.5642 24.2472 55.9553 24.2472C56.2171 24.2472 56.4541 24.2107 56.6662 24.1378C56.8783 24.0616 57.0623 23.9505 57.218 23.8047C57.3738 23.6589 57.4915 23.4782 57.571 23.2628L59.2514 23.4517C59.1454 23.8958 58.9432 24.2836 58.6449 24.6151C58.3499 24.9432 57.9721 25.1984 57.5114 25.3807C57.0507 25.5597 56.5237 25.6491 55.9304 25.6491ZM66.8841 19.8821L65.2434 20.0611C65.197 19.8954 65.1158 19.7396 64.9998 19.5938C64.8871 19.4479 64.7347 19.3303 64.5424 19.2408C64.3502 19.1513 64.1149 19.1065 63.8365 19.1065C63.4619 19.1065 63.1471 19.1877 62.8919 19.3501C62.64 19.5125 62.5157 19.723 62.519 19.9815C62.5157 20.2036 62.5969 20.3842 62.7626 20.5234C62.9316 20.6626 63.21 20.777 63.5978 20.8665L64.9004 21.1449C65.6229 21.3007 66.1599 21.5476 66.5112 21.8857C66.8658 22.2237 67.0448 22.6662 67.0481 23.2131C67.0448 23.6937 66.9039 24.1179 66.6255 24.4858C66.3504 24.8504 65.9676 25.1354 65.4771 25.3409C64.9866 25.5464 64.4231 25.6491 63.7868 25.6491C62.8521 25.6491 62.0997 25.4536 61.5297 25.0625C60.9596 24.6681 60.6199 24.1196 60.5105 23.4169L62.2654 23.2479C62.345 23.5926 62.514 23.8527 62.7725 24.0284C63.0311 24.2041 63.3675 24.2919 63.7818 24.2919C64.2093 24.2919 64.5524 24.2041 64.8109 24.0284C65.0727 23.8527 65.2037 23.6357 65.2037 23.3771C65.2037 23.1584 65.1191 22.9777 64.9501 22.8352C64.7844 22.6927 64.5259 22.5833 64.1745 22.5071L62.872 22.2337C62.1395 22.0812 61.5976 21.8243 61.2463 21.4631C60.8949 21.0985 60.7209 20.6378 60.7243 20.081C60.7209 19.6103 60.8485 19.2027 61.1071 18.858C61.3689 18.5099 61.7318 18.2415 62.1958 18.0526C62.6632 17.8603 63.2018 17.7642 63.8116 17.7642C64.7065 17.7642 65.4108 17.9548 65.9245 18.3359C66.4416 18.7171 66.7614 19.2325 66.8841 19.8821ZM74.5676 19.8821L72.927 20.0611C72.8806 19.8954 72.7994 19.7396 72.6834 19.5938C72.5707 19.4479 72.4183 19.3303 72.226 19.2408C72.0338 19.1513 71.7985 19.1065 71.5201 19.1065C71.1455 19.1065 70.8307 19.1877 70.5755 19.3501C70.3236 19.5125 70.1993 19.723 70.2026 19.9815C70.1993 20.2036 70.2805 20.3842 70.4462 20.5234C70.6152 20.6626 70.8936 20.777 71.2814 20.8665L72.584 21.1449C73.3065 21.3007 73.8435 21.5476 74.1948 21.8857C74.5494 22.2237 74.7284 22.6662 74.7317 23.2131C74.7284 23.6937 74.5875 24.1179 74.3091 24.4858C74.034 24.8504 73.6512 25.1354 73.1607 25.3409C72.6702 25.5464 72.1067 25.6491 71.4703 25.6491C70.5357 25.6491 69.7833 25.4536 69.2132 25.0625C68.6432 24.6681 68.3034 24.1196 68.1941 23.4169L69.949 23.2479C70.0286 23.5926 70.1976 23.8527 70.4561 24.0284C70.7147 24.2041 71.0511 24.2919 71.4654 24.2919C71.8929 24.2919 72.236 24.2041 72.4945 24.0284C72.7563 23.8527 72.8873 23.6357 72.8873 23.3771C72.8873 23.1584 72.8027 22.9777 72.6337 22.8352C72.468 22.6927 72.2095 22.5833 71.8581 22.5071L70.5556 22.2337C69.8231 22.0812 69.2812 21.8243 68.9299 21.4631C68.5785 21.0985 68.4045 20.6378 68.4078 20.081C68.4045 19.6103 68.5321 19.2027 68.7907 18.858C69.0525 18.5099 69.4154 18.2415 69.8794 18.0526C70.3468 17.8603 70.8854 17.7642 71.4952 17.7642C72.3901 17.7642 73.0944 17.9548 73.6081 18.3359C74.1252 18.7171 74.445 19.2325 74.5676 19.8821ZM78.4132 25.6541C77.9293 25.6541 77.4934 25.5679 77.1056 25.3956C76.7212 25.2199 76.4163 24.9614 76.1909 24.62C75.9688 24.2786 75.8578 23.8577 75.8578 23.3572C75.8578 22.9264 75.9373 22.5701 76.0964 22.2884C76.2555 22.0066 76.4726 21.7812 76.7477 21.6122C77.0228 21.4432 77.3327 21.3156 77.6774 21.2294C78.0254 21.1399 78.385 21.0753 78.7562 21.0355C79.2037 20.9891 79.5666 20.9477 79.845 20.9112C80.1234 20.8714 80.3256 20.8118 80.4515 20.7322C80.5808 20.6494 80.6454 20.5218 80.6454 20.3494V20.3196C80.6454 19.9451 80.5344 19.6551 80.3123 19.4496C80.0903 19.2441 79.7704 19.1413 79.3528 19.1413C78.912 19.1413 78.5623 19.2375 78.3038 19.4297C78.0486 19.6219 77.8762 19.849 77.7868 20.1108L76.1064 19.8722C76.2389 19.4081 76.4577 19.0204 76.7626 18.7088C77.0675 18.3939 77.4404 18.1586 77.8812 18.0028C78.322 17.8438 78.8092 17.7642 79.3429 17.7642C79.7108 17.7642 80.077 17.8073 80.4416 17.8935C80.8062 17.9796 81.1393 18.1222 81.4409 18.321C81.7425 18.5166 81.9844 18.7834 82.1667 19.1214C82.3523 19.4595 82.4451 19.8821 82.4451 20.3892V25.5H80.715V24.451H80.6554C80.546 24.6631 80.3919 24.862 80.193 25.0476C79.9975 25.2299 79.7505 25.3774 79.4522 25.4901C79.1573 25.5994 78.8109 25.6541 78.4132 25.6541ZM78.8805 24.3317C79.2418 24.3317 79.555 24.2604 79.8201 24.1179C80.0853 23.9721 80.2891 23.7798 80.4316 23.5412C80.5775 23.3026 80.6504 23.0424 80.6504 22.7607V21.8608C80.594 21.9072 80.4979 21.9503 80.362 21.9901C80.2295 22.0298 80.0803 22.0646 79.9146 22.0945C79.7489 22.1243 79.5848 22.1508 79.4224 22.174C79.26 22.1972 79.1191 22.2171 78.9998 22.2337C78.7314 22.2701 78.4911 22.3298 78.2789 22.4126C78.0668 22.4955 77.8994 22.6115 77.7768 22.7607C77.6542 22.9065 77.5929 23.0954 77.5929 23.3274C77.5929 23.6589 77.7138 23.9091 77.9558 24.0781C78.1977 24.2472 78.506 24.3317 78.8805 24.3317ZM87.5758 28.5227C86.9295 28.5227 86.3743 28.4349 85.9103 28.2592C85.4463 28.0869 85.0734 27.8549 84.7917 27.5632C84.51 27.2715 84.3145 26.9484 84.2051 26.5938L85.8258 26.201C85.8987 26.3501 86.0048 26.4976 86.144 26.6435C86.2832 26.7926 86.4705 26.9152 86.7058 27.0114C86.9444 27.1108 87.2444 27.1605 87.6056 27.1605C88.1161 27.1605 88.5386 27.0362 88.8734 26.7876C89.2082 26.5424 89.3755 26.138 89.3755 25.5746V24.1278H89.286C89.1932 24.3134 89.0574 24.504 88.8784 24.6996C88.7027 24.8951 88.469 25.0592 88.1774 25.1918C87.889 25.3243 87.5261 25.3906 87.0886 25.3906C86.502 25.3906 85.97 25.2531 85.4927 24.978C85.0188 24.6996 84.6409 24.2853 84.3592 23.7351C84.0808 23.1816 83.9416 22.4889 83.9416 21.657C83.9416 20.8184 84.0808 20.1108 84.3592 19.5341C84.6409 18.9541 85.0204 18.5149 85.4977 18.2166C85.975 17.915 86.5069 17.7642 87.0936 17.7642C87.541 17.7642 87.9089 17.8404 88.1973 17.9929C88.4889 18.142 88.7209 18.3227 88.8933 18.5348C89.0656 18.7436 89.1966 18.9408 89.286 19.1264H89.3855V17.8636H91.1603V25.6243C91.1603 26.2772 91.0046 26.8175 90.693 27.245C90.3815 27.6726 89.9556 27.9924 89.4153 28.2045C88.8751 28.4167 88.2619 28.5227 87.5758 28.5227ZM87.5907 23.9787C87.9719 23.9787 88.2967 23.8859 88.5652 23.7003C88.8336 23.5147 89.0375 23.2479 89.1767 22.8999C89.3159 22.5518 89.3855 22.1342 89.3855 21.647C89.3855 21.1664 89.3159 20.7455 89.1767 20.3842C89.0408 20.023 88.8386 19.7429 88.5701 19.544C88.305 19.3419 87.9785 19.2408 87.5907 19.2408C87.1897 19.2408 86.8549 19.3452 86.5865 19.554C86.318 19.7628 86.1158 20.0495 85.9799 20.4141C85.844 20.7753 85.7761 21.1863 85.7761 21.647C85.7761 22.1143 85.844 22.5237 85.9799 22.875C86.1191 23.223 86.323 23.4948 86.5914 23.6903C86.8632 23.8826 87.1963 23.9787 87.5907 23.9787ZM96.3855 25.6491C95.6199 25.6491 94.9586 25.4901 94.4018 25.1719C93.8483 24.8504 93.4224 24.3963 93.1241 23.8097C92.8258 23.2197 92.6767 22.5253 92.6767 21.7266C92.6767 20.9411 92.8258 20.2517 93.1241 19.6584C93.4257 19.0618 93.8467 18.5978 94.3869 18.2663C94.9271 17.9316 95.5618 17.7642 96.291 17.7642C96.7617 17.7642 97.2058 17.8404 97.6234 17.9929C98.0443 18.142 98.4155 18.3741 98.737 18.6889C99.0618 19.0038 99.3171 19.4048 99.5027 19.892C99.6883 20.3759 99.7811 20.9527 99.7811 21.6222V22.174H93.5218V20.9609H98.0559C98.0526 20.6162 97.978 20.3097 97.8322 20.0412C97.6864 19.7694 97.4825 19.5556 97.2207 19.3999C96.9622 19.2441 96.6606 19.1662 96.3159 19.1662C95.948 19.1662 95.6248 19.2557 95.3464 19.4347C95.068 19.6103 94.8509 19.8423 94.6951 20.1307C94.5427 20.4157 94.4648 20.7289 94.4615 21.0703V22.1293C94.4615 22.5734 94.5427 22.9545 94.7051 23.2727C94.8675 23.5876 95.0945 23.8295 95.3862 23.9986C95.6779 24.1643 96.0192 24.2472 96.4103 24.2472C96.6722 24.2472 96.9092 24.2107 97.1213 24.1378C97.3334 24.0616 97.5173 23.9505 97.6731 23.8047C97.8289 23.6589 97.9466 23.4782 98.0261 23.2628L99.7065 23.4517C99.6004 23.8958 99.3983 24.2836 99.1 24.6151C98.805 24.9432 98.4271 25.1984 97.9664 25.3807C97.5057 25.5597 96.9788 25.6491 96.3855 25.6491ZM107.339 19.8821L105.699 20.0611C105.652 19.8954 105.571 19.7396 105.455 19.5938C105.342 19.4479 105.19 19.3303 104.998 19.2408C104.805 19.1513 104.57 19.1065 104.292 19.1065C103.917 19.1065 103.602 19.1877 103.347 19.3501C103.095 19.5125 102.971 19.723 102.974 19.9815C102.971 20.2036 103.052 20.3842 103.218 20.5234C103.387 20.6626 103.665 20.777 104.053 20.8665L105.355 21.1449C106.078 21.3007 106.615 21.5476 106.966 21.8857C107.321 22.2237 107.5 22.6662 107.503 23.2131C107.5 23.6937 107.359 24.1179 107.081 24.4858C106.806 24.8504 106.423 25.1354 105.932 25.3409C105.442 25.5464 104.878 25.6491 104.242 25.6491C103.307 25.6491 102.555 25.4536 101.985 25.0625C101.415 24.6681 101.075 24.1196 100.966 23.4169L102.721 23.2479C102.8 23.5926 102.969 23.8527 103.228 24.0284C103.486 24.2041 103.823 24.2919 104.237 24.2919C104.664 24.2919 105.007 24.2041 105.266 24.0284C105.528 23.8527 105.659 23.6357 105.659 23.3771C105.659 23.1584 105.574 22.9777 105.405 22.8352C105.239 22.6927 104.981 22.5833 104.63 22.5071L103.327 22.2337C102.595 22.0812 102.053 21.8243 101.701 21.4631C101.35 21.0985 101.176 20.6378 101.179 20.081C101.176 19.6103 101.304 19.2027 101.562 18.858C101.824 18.5099 102.187 18.2415 102.651 18.0526C103.118 17.8603 103.657 17.7642 104.267 17.7642C105.162 17.7642 105.866 17.9548 106.38 18.3359C106.897 18.7171 107.217 19.2325 107.339 19.8821Z" fill="#1C6BA4"/>
</g>
<defs>
<filter id="filter0_d_488_407" x="0.5" y="0.5" width="124" height="42" filterUnits="userSpaceOnUse" color-interpolation-filters="sRGB">
<feFlood flood-opacity="0" result="BackgroundImageFix"/>
<feColorMatrix in="SourceAlpha" type="matrix" values="0 0 0 0 0 0 0 0 0 0 0 0 0 0 0 0 0 0 127 0" result="hardAlpha"/>
<feOffset dy="2"/>
<feComposite in2="hardAlpha" operator="out"/>
<feColorMatrix type="matrix" values="0 0 0 0 0.552941 0 0 0 0 0.709804 0 0 0 0 0.819608 0 0 0 1 0"/>
<feBlend mode="normal" in2="BackgroundImageFix" result="effect1_dropShadow_488_407"/>
<feBlend mode="normal" in="SourceGraphic" in2="effect1_dropShadow_488_407" result="shape"/>
</filter>
<clipPath id="clip0_488_407">
<rect width="24" height="24" fill="white" transform="translate(10.5 8.5)"/>
</clipPath>
</defs>
</svg>
