<svg width="57" height="56" viewBox="0 0 57 56" fill="none" xmlns="http://www.w3.org/2000/svg">
<rect width="56.7273" height="56" rx="20" fill="#DCEDF9"/>
<g clip-path="url(#clip0_2_1198)">
<path d="M34.015 29.2446H27.7928V35.4668H34.015V29.2446ZM32.7705 15.5557V18.0446H22.815V15.5557H20.3261V18.0446H19.0817C17.7003 18.0446 16.6052 19.1646 16.6052 20.5334L16.5928 37.9557C16.5928 39.3246 17.7003 40.4446 19.0817 40.4446H36.5039C37.8728 40.4446 38.9928 39.3246 38.9928 37.9557V20.5334C38.9928 19.1646 37.8728 18.0446 36.5039 18.0446H35.2594V15.5557H32.7705ZM36.5039 37.9557H19.0817V24.2668H36.5039V37.9557Z" fill="#1C6BA4"/>
</g>
<defs>
<clipPath id="clip0_2_1198">
<rect width="24.8889" height="24.8889" fill="white" transform="translate(15.5557 15.5557)"/>
</clipPath>
</defs>
</svg>
