<svg width="57" height="56" viewBox="0 0 57 56" fill="none" xmlns="http://www.w3.org/2000/svg">
<rect width="56.7273" height="56" rx="20" fill="#FAF0DB"/>
<g clip-path="url(#clip0_2_1213)">
<path d="M27.7112 17.6299H38.7694V21.4117H27.7112V17.6299Z" fill="#E09F1F"/>
<path d="M16.7009 30.6506C15.3127 32.0389 15.169 34.2889 16.3658 35.8208L21.8711 30.3155C20.3391 29.1187 18.0892 29.2624 16.7009 30.6506L16.7009 30.6506Z" fill="#E09F1F"/>
<path d="M17.0837 36.5388C18.6156 37.7355 20.8177 37.5919 22.2539 36.2036C23.6421 34.8154 23.7857 32.5653 22.589 31.0334L17.0837 36.5388Z" fill="#E09F1F"/>
<path d="M21.8708 19.7361C20.339 18.5394 18.0892 18.683 16.7011 20.0712C15.3129 21.4595 15.1693 23.7095 16.366 25.2414L21.8708 19.7361Z" fill="#E09F1F"/>
<path d="M17.0837 25.9591C18.6156 27.1559 20.8177 27.0123 22.2539 25.624C23.6421 24.2358 23.7857 21.9857 22.589 20.4539L17.0837 25.9591Z" fill="#E09F1F"/>
<path d="M33.9343 30.1719V28.1614H32.594V30.2199C32.594 30.5071 32.3547 30.7465 32.0673 30.7465H30.0088V32.0869H32.0673C32.3545 32.0869 32.594 32.3261 32.594 32.6135V34.672H33.9343V32.6135C33.9343 32.3263 34.1736 32.0869 34.461 32.0869H36.5195V30.7465H34.461C34.1736 30.6986 33.9343 30.4592 33.9343 30.172V30.1719Z" fill="#E09F1F"/>
<path d="M39.6307 25.098C38.7212 24.4756 38.0989 23.5661 37.8594 22.4651H28.6682C28.4289 23.5182 27.7587 24.4756 26.8969 25.098C26.3702 25.4331 26.083 26.0075 26.083 26.6298V36.8261C26.083 37.8792 26.9446 38.6931 27.95 38.6931H38.5775C39.6306 38.6931 40.4444 37.8315 40.4444 36.8261V26.6298C40.4444 26.0075 40.1572 25.4331 39.6306 25.098H39.6307ZM37.5245 32.5658C37.5245 32.853 37.2852 33.0925 36.9978 33.0925H34.9393V35.151C34.9393 35.4382 34.7 35.6777 34.4127 35.6777H32.019C31.7318 35.6777 31.4924 35.4384 31.4924 35.151V33.0925H29.4339C29.1467 33.0925 28.9072 32.8532 28.9072 32.5658V30.1722C28.9072 29.885 29.1465 29.6455 29.4339 29.6455H31.4924V27.587C31.4924 27.2998 31.7316 27.0604 32.019 27.0604H34.4127C34.6999 27.0604 34.9393 27.2996 34.9393 27.587V29.6455H36.9978C37.285 29.6455 37.5245 29.8848 37.5245 30.1722V32.5658Z" fill="#E09F1F"/>
</g>
<defs>
<clipPath id="clip0_2_1213">
<rect width="24.8889" height="24.8889" fill="white" transform="translate(15.5557 15.5557)"/>
</clipPath>
</defs>
</svg>
