<svg width="21" height="21" viewBox="0 0 21 21" fill="none" xmlns="http://www.w3.org/2000/svg">
<path fill-rule="evenodd" clip-rule="evenodd" d="M8.39335 2.80024C8.18027 2.98183 8.07372 3.07263 7.95993 3.1489C7.69909 3.32372 7.40615 3.44506 7.09809 3.50588C6.9637 3.53242 6.82415 3.54355 6.54507 3.56582C5.84386 3.62178 5.49325 3.64976 5.20075 3.75308C4.5242 3.99204 3.99204 4.5242 3.75308 5.20075C3.64976 5.49325 3.62178 5.84386 3.56582 6.54507C3.54355 6.82415 3.53242 6.9637 3.50588 7.09809C3.44506 7.40615 3.32372 7.69909 3.1489 7.95993C3.07263 8.07372 2.98184 8.18026 2.80024 8.39335C2.34398 8.92876 2.11584 9.19643 1.98207 9.47634C1.67264 10.1238 1.67264 10.8763 1.98207 11.5237C2.11585 11.8036 2.34398 12.0712 2.80024 12.6067C2.98181 12.8197 3.07263 12.9263 3.1489 13.04C3.32372 13.3009 3.44506 13.5938 3.50588 13.9019C3.53242 14.0363 3.54355 14.1759 3.56582 14.4549C3.62178 15.1561 3.64976 15.5068 3.75308 15.7993C3.99204 16.4758 4.5242 17.008 5.20075 17.247C5.49325 17.3502 5.84386 17.3782 6.54507 17.4342C6.82415 17.4564 6.9637 17.4676 7.09809 17.4941C7.40615 17.5549 7.69909 17.6763 7.95993 17.8511C8.07372 17.9274 8.18026 18.0182 8.39335 18.1997C8.92876 18.656 9.19643 18.8842 9.47634 19.018C10.1238 19.3274 10.8763 19.3274 11.5237 19.018C11.8036 18.8842 12.0712 18.656 12.6067 18.1997C12.8197 18.0182 12.9263 17.9274 13.04 17.8511C13.3009 17.6763 13.5938 17.5549 13.9019 17.4941C14.0363 17.4676 14.1759 17.4564 14.4549 17.4342C15.1561 17.3782 15.5068 17.3502 15.7993 17.247C16.4758 17.008 17.008 16.4758 17.247 15.7993C17.3502 15.5068 17.3782 15.1561 17.4342 14.4549C17.4564 14.1759 17.4676 14.0363 17.4941 13.9019C17.5549 13.5938 17.6763 13.3009 17.8511 13.04C17.9274 12.9263 18.0182 12.8197 18.1997 12.6067C18.656 12.0712 18.8842 11.8036 19.018 11.5237C19.3274 10.8763 19.3274 10.1238 19.018 9.47634C18.8842 9.19643 18.656 8.92876 18.1997 8.39335C18.0182 8.18026 17.9274 8.07372 17.8511 7.95993C17.6763 7.69909 17.5549 7.40615 17.4941 7.09809C17.4676 6.9637 17.4564 6.82415 17.4342 6.54507C17.3782 5.84386 17.3502 5.49325 17.247 5.20075C17.008 4.5242 16.4758 3.99204 15.7993 3.75308C15.5068 3.64976 15.1561 3.62178 14.4549 3.56582C14.1759 3.54355 14.0363 3.53242 13.9019 3.50588C13.5938 3.44506 13.3009 3.32372 13.04 3.1489C12.9263 3.07263 12.8197 2.98184 12.6067 2.80024C12.0712 2.34398 11.8036 2.11585 11.5237 1.98207C10.8763 1.67264 10.1238 1.67264 9.47634 1.98207C9.19643 2.11584 8.92876 2.34398 8.39335 2.80024ZM14.3268 8.63025C14.6049 8.35214 14.6049 7.90125 14.3268 7.62314C14.0487 7.34504 13.5978 7.34504 13.3197 7.62314L9.07576 11.8671L7.68028 10.4717C7.40218 10.1936 6.95128 10.1936 6.67318 10.4717C6.39508 10.7497 6.39508 11.2006 6.67318 11.4788L8.57218 13.3778C8.85028 13.6559 9.30116 13.6559 9.57933 13.3778L14.3268 8.63025Z" fill="#008A5E"/>
</svg>
