<svg width="29" height="29" viewBox="0 0 29 29" fill="none" xmlns="http://www.w3.org/2000/svg">
<path fill-rule="evenodd" clip-rule="evenodd" d="M11.1896 2.40037C10.8547 2.68573 10.6873 2.82843 10.5085 2.94827C10.0986 3.223 9.63824 3.41367 9.15414 3.50924C8.94295 3.55095 8.72367 3.56844 8.28511 3.60343C7.18322 3.69138 6.63225 3.73533 6.1726 3.89769C5.10945 4.27321 4.27321 5.10945 3.89769 6.1726C3.73533 6.63225 3.69138 7.18322 3.60343 8.28511C3.56844 8.72367 3.55095 8.94295 3.50924 9.15414C3.41367 9.63824 3.223 10.0986 2.94827 10.5085C2.82843 10.6873 2.68574 10.8547 2.40037 11.1896C1.68339 12.0309 1.32489 12.4515 1.11468 12.8914C0.62844 13.9088 0.62844 15.0913 1.11468 16.1086C1.3249 16.5485 1.68339 16.9691 2.40037 17.8105C2.6857 18.1453 2.82843 18.3127 2.94827 18.4915C3.223 18.9014 3.41367 19.3617 3.50924 19.8459C3.55095 20.0571 3.56844 20.2764 3.60343 20.7149C3.69138 21.8168 3.73533 22.3678 3.89769 22.8274C4.27321 23.8906 5.10945 24.7268 6.1726 25.1024C6.63225 25.2646 7.18322 25.3086 8.28511 25.3966C8.72367 25.4315 8.94295 25.4491 9.15414 25.4908C9.63824 25.5863 10.0986 25.7771 10.5085 26.0518C10.6873 26.1716 10.8547 26.3143 11.1896 26.5996C12.0309 27.3167 12.4515 27.6751 12.8914 27.8854C13.9088 28.3716 15.0913 28.3716 16.1086 27.8854C16.5485 27.6751 16.9691 27.3167 17.8105 26.5996C18.1453 26.3143 18.3127 26.1716 18.4915 26.0518C18.9014 25.7771 19.3617 25.5863 19.8459 25.4908C20.0571 25.4491 20.2764 25.4315 20.7149 25.3966C21.8168 25.3086 22.3678 25.2646 22.8274 25.1024C23.8906 24.7268 24.7268 23.8906 25.1024 22.8274C25.2646 22.3678 25.3086 21.8168 25.3966 20.7149C25.4315 20.2764 25.4491 20.0571 25.4908 19.8459C25.5863 19.3617 25.7771 18.9014 26.0518 18.4915C26.1716 18.3127 26.3143 18.1453 26.5996 17.8105C27.3167 16.9691 27.6751 16.5485 27.8854 16.1086C28.3716 15.0913 28.3716 13.9088 27.8854 12.8914C27.6751 12.4515 27.3167 12.0309 26.5996 11.1896C26.3143 10.8547 26.1716 10.6873 26.0518 10.5085C25.7771 10.0986 25.5863 9.63824 25.4908 9.15414C25.4491 8.94295 25.4315 8.72367 25.3966 8.28511C25.3086 7.18322 25.2646 6.63225 25.1024 6.1726C24.7268 5.10945 23.8906 4.27321 22.8274 3.89769C22.3678 3.73533 21.8168 3.69138 20.7149 3.60343C20.2764 3.56844 20.0571 3.55095 19.8459 3.50924C19.3617 3.41367 18.9014 3.223 18.4915 2.94827C18.3127 2.82843 18.1453 2.68574 17.8105 2.40037C16.9691 1.68339 16.5485 1.3249 16.1086 1.11468C15.0913 0.62844 13.9088 0.62844 12.8914 1.11468C12.4515 1.32489 12.0309 1.68339 11.1896 2.40037ZM20.5136 11.5618C20.9505 11.1248 20.9505 10.4163 20.5136 9.97922C20.0766 9.54221 19.3679 9.54221 18.9309 9.97922L12.2619 16.6483L10.069 14.4555C9.63199 14.0185 8.92344 14.0185 8.48643 14.4555C8.04941 14.8924 8.04941 15.601 8.48643 16.0381L11.4706 19.0222C11.9076 19.4592 12.6161 19.4592 13.0532 19.0222L20.5136 11.5618Z" fill="#008A5E"/>
</svg>
