<svg width="20" height="20" viewBox="0 0 20 20" fill="none" xmlns="http://www.w3.org/2000/svg">
<g id="Video icon">
<g id="Group">
<path id="Vector" d="M2.38777 5.38777L2.38777 5.38777C1.97934 5.7962 1.75 6.34999 1.75 6.92748V13.1419C1.75 13.7194 1.97936 14.2731 2.38776 14.6816L2.56419 14.5052L2.38777 14.6816C2.79604 15.0899 3.34983 15.3193 3.92748 15.3193H11.8763C12.4538 15.3193 13.0077 15.0898 13.416 14.6816L13.2392 14.5048L13.416 14.6816C13.8244 14.2731 14.0537 13.7194 14.0537 13.1419V12.7783L17.3254 14.4401C17.5224 14.5407 17.7574 14.5316 17.9461 14.4162L17.9462 14.4162C18.1348 14.3007 18.2498 14.0955 18.25 13.8745V13.8742V6.1915V6.19125C18.2498 5.9703 18.1349 5.76502 17.9461 5.64962C17.7575 5.53431 17.5227 5.5251 17.3257 5.62557C17.3256 5.62563 17.3255 5.62569 17.3254 5.62574L14.0537 7.28752V6.92399V6.92352C14.0527 6.3468 13.8227 5.79392 13.4145 5.38656C13.0064 4.97922 12.4531 4.75 11.8763 4.75H3.92748C3.34986 4.75 2.79604 4.9795 2.38777 5.38777ZM12.7828 13.1415C12.7828 13.382 12.6873 13.6127 12.5173 13.7826C12.3472 13.9526 12.1167 14.0481 11.8763 14.0481H3.92748C3.68694 14.0481 3.45635 13.9526 3.28639 13.7826C3.11642 13.6126 3.02094 13.3821 3.02094 13.1417V6.92727C3.02094 6.68687 3.11642 6.45629 3.28639 6.28631C3.45635 6.11635 3.68694 6.02086 3.92748 6.02086H11.8763C12.1167 6.02086 12.3472 6.1163 12.5174 6.28631C12.6873 6.45628 12.7828 6.68687 12.7828 6.92727V13.1415ZM14.0539 8.71313L16.9771 7.22695V12.8423L14.0539 11.361V8.71313Z" fill="black" stroke="black" stroke-width="0.5"/>
</g>
</g>
</svg>
