<svg width="20" height="20" viewBox="0 0 20 20" fill="none" xmlns="http://www.w3.org/2000/svg">
<path d="M17.5437 13.3062L14.0436 11.8061C13.8941 11.7424 13.728 11.729 13.5701 11.7679C13.4123 11.8068 13.2714 11.8959 13.1686 12.0218L11.6186 13.9156C9.18598 12.7686 7.22828 10.8109 6.08132 8.37827L7.9751 6.82824C8.10126 6.72564 8.19054 6.58473 8.22945 6.42684C8.26836 6.26896 8.25477 6.10269 8.19073 5.95322L6.69071 2.45316C6.62043 2.29204 6.49613 2.16048 6.33925 2.08119C6.18236 2.00189 6.00273 1.97982 5.83132 2.01878L2.58126 2.76879C2.416 2.80696 2.26855 2.90001 2.16298 3.03276C2.05742 3.16552 1.99996 3.33013 2 3.49974C2 11.5155 8.49699 18 16.5003 18C16.6699 18.0001 16.8346 17.9427 16.9674 17.8371C17.1002 17.7315 17.1933 17.5841 17.2315 17.4187L17.9815 14.1687C18.0202 13.9964 17.9977 13.8161 17.9178 13.6587C17.8379 13.5012 17.7056 13.3766 17.5437 13.3062Z" fill="black"/>
</svg>
