<svg width="13" height="22" viewBox="0 0 13 22" fill="none" xmlns="http://www.w3.org/2000/svg">
<path d="M6.42342 0.22876C6.42342 0.22876 0.0773926 10.2932 0.0773926 14.2966C0.0773926 18.2999 2.95272 21.5465 6.49906 21.5465C10.0454 21.5467 12.9207 18.3005 12.9207 14.2966C12.9207 10.2926 6.42297 0.22876 6.42297 0.22876H6.42342ZM4.19208 19.5129C4.11715 19.6261 4.00199 19.6862 3.88558 19.6862C3.80566 19.6862 3.72503 19.6582 3.6565 19.6C2.03994 18.2331 1.3374 15.7192 1.30842 15.6129C1.24612 15.385 1.35915 15.1432 1.56082 15.0727C1.7639 15.0012 1.97696 15.1298 2.03981 15.3573C2.04622 15.381 2.70089 17.7118 4.11559 18.9083C4.2845 19.0511 4.31903 19.3218 4.19212 19.5129L4.19208 19.5129ZM5.6472 20.4546C5.6383 20.4546 5.62958 20.4544 5.62068 20.4538C5.32574 20.4307 5.03401 20.3656 4.75369 20.2597C4.55345 20.1839 4.44523 19.939 4.51233 19.7129C4.57997 19.4864 4.79676 19.3653 4.99684 19.4404C5.21559 19.523 5.44307 19.5741 5.67304 19.5919C5.88378 19.6084 6.04309 19.8146 6.02867 20.0525C6.01497 20.2802 5.84641 20.4546 5.64723 20.4546L5.6472 20.4546Z" fill="white"/>
</svg>
