<svg width="32" height="32" viewBox="0 0 32 32" fill="none" xmlns="http://www.w3.org/2000/svg">
<path d="M16.3794 8.03457V6.89668C16.3794 6.76793 16.3891 6.64133 16.407 6.51733H16.3794C15.9611 6.51733 15.6208 6.8577 15.6208 7.27589C15.6207 7.6942 15.9611 8.03457 16.3794 8.03457V8.03457Z" fill="#E01F1F"/>
<path d="M7.27588 10.3103H11.0689V11.0689H7.27588V10.3103Z" fill="#E01F1F"/>
<path d="M17.882 11.0229C18.1301 10.9589 18.3577 10.8295 18.5437 10.6435L19.0341 10.1533L19.7927 10.9118L20.5512 10.1533L21.0417 10.6437C21.2277 10.8297 21.4552 10.959 21.7034 11.023C21.7474 10.3676 21.8934 9.72695 22.1389 9.11311L22.4478 8.34061V6.89657C22.4478 5.85076 21.5971 5 20.5513 5H19.034C17.9882 5 17.1375 5.85076 17.1375 6.89657V8.34077L17.4464 9.11296C17.692 9.72679 17.838 10.3675 17.882 11.0229H17.882Z" fill="#E01F1F"/>
<path d="M23.2066 8.03445C23.6249 8.03445 23.9651 7.69408 23.9651 7.27589C23.9651 6.85758 23.6248 6.51733 23.2066 6.51733H23.179C23.1968 6.64133 23.2066 6.76778 23.2066 6.89668V8.03445Z" fill="#E01F1F"/>
<path d="M6.1378 12.586H12.2066C12.4157 12.586 12.5859 12.4158 12.5859 12.2066L12.5858 9.17232C12.5858 8.96315 12.4156 8.79297 12.2064 8.79297H6.13765C5.92848 8.79297 5.7583 8.96315 5.7583 9.17232V12.2068C5.7583 12.416 5.92848 12.586 6.13765 12.586L6.1378 12.586ZM6.51714 9.55166H11.8273V11.8275H6.51714V9.55166Z" fill="#E01F1F"/>
<path d="M5 25.4827V26.9998H14.1637C14.1248 26.8863 14.1033 26.7646 14.1033 26.638C14.1033 26.2625 14.2899 25.914 14.6024 25.7058L14.9369 25.4828L5 25.4827Z" fill="#E01F1F"/>
<path d="M24.5624 26.3366L24.0313 25.9824C23.7675 25.8064 23.5879 25.526 23.5385 25.2129L22.6541 19.6121C22.3104 19.958 21.8347 20.1723 21.3098 20.1723C21.1344 20.1723 20.965 20.1476 20.8037 20.103L22.237 26.4094C22.316 26.7572 22.6202 26.9999 22.9768 26.9999H24.3618C24.5613 26.9999 24.7236 26.8376 24.7236 26.6381C24.7236 26.5167 24.6633 26.404 24.5624 26.3367L24.5624 26.3366Z" fill="#E01F1F"/>
<path d="M16.9313 19.6122L16.0469 25.2131C15.9975 25.5261 15.818 25.8065 15.5542 25.9824L15.0229 26.3365C14.922 26.4038 14.8618 26.5164 14.8618 26.6376C14.8618 26.8371 15.0242 26.9996 15.2237 26.9996H16.6086C16.9651 26.9996 17.2694 26.7569 17.3484 26.4091L18.7817 20.1027C18.6203 20.1475 18.4508 20.1722 18.2754 20.1722C17.7506 20.1722 17.275 19.9578 16.9313 19.6121L16.9313 19.6122Z" fill="#E01F1F"/>
<path d="M26.6185 16.3279L25.9714 15.8964L23.9255 12.9737C23.5588 12.4496 23.0149 12.0757 22.3943 11.9205L22.0174 11.8263C21.4679 11.8139 20.9516 11.6024 20.5523 11.2253L19.7929 11.9846L19.0336 11.2253C18.6343 11.6024 18.118 11.8138 17.5685 11.8263L17.1916 11.9205C16.571 12.0757 16.0272 12.4496 15.6604 12.9737L13.6145 15.8964L12.9674 16.3279C12.7287 16.4871 12.5862 16.7533 12.5862 17.0403C12.586 17.5124 12.9701 17.8964 13.4422 17.8964C13.8804 17.8964 14.2607 17.5995 14.3671 17.1744L14.5233 16.5492L17.8964 13.6579V16.021C17.8964 16.314 17.8272 16.6072 17.6962 16.8692L17.2674 17.7269C17.1825 17.8963 17.1377 18.0861 17.1377 18.2756C17.1377 18.9031 17.6483 19.4135 18.2756 19.4135C18.9031 19.4135 19.4135 18.903 19.4135 18.2756V17.8963H20.1721V18.2756C20.1721 18.9031 20.6826 19.4135 21.31 19.4135C21.9375 19.4135 22.4479 18.903 22.4479 18.2756C22.4479 18.086 22.403 17.8963 22.3183 17.7267L21.8896 16.869C21.7587 16.6072 21.6895 16.314 21.6895 16.021V13.6579L25.0626 16.5491L25.2188 17.1743C25.3252 17.5993 25.7055 17.8963 26.1437 17.8963C26.6156 17.8964 26.9997 17.5123 26.9997 17.0403C26.9997 16.7535 26.8571 16.4871 26.6185 16.3279H26.6185Z" fill="#E01F1F"/>
<path d="M9.55164 13.3447H8.79297V18.1187L9.55164 17.3601V13.3447Z" fill="#E01F1F"/>
<path d="M8.79297 24.724H9.55164V18.4329L8.79297 19.1915V24.724Z" fill="#E01F1F"/>
</svg>
