<svg width="92" height="43" viewBox="0 0 92 43" fill="none" xmlns="http://www.w3.org/2000/svg">
<g filter="url(#filter0_d_488_459)">
<rect y="0.5" width="92" height="40" rx="20" fill="white" shape-rendering="crispEdges"/>
<g clip-path="url(#clip0_488_459)">
<path d="M20.1695 15.5438L12.1673 22.1345V29.2478C12.1673 29.432 12.2405 29.6086 12.3707 29.7389C12.5009 29.8691 12.6776 29.9423 12.8618 29.9423L17.7255 29.9297C17.9091 29.9288 18.0848 29.8552 18.2143 29.7251C18.3438 29.5949 18.4165 29.4188 18.4164 29.2352V25.0812C18.4164 24.897 18.4896 24.7204 18.6198 24.5901C18.7501 24.4599 18.9267 24.3867 19.1109 24.3867H21.8887C22.0728 24.3867 22.2495 24.4599 22.3797 24.5901C22.5099 24.7204 22.5831 24.897 22.5831 25.0812V29.2322C22.5828 29.3236 22.6006 29.4141 22.6354 29.4986C22.6701 29.5831 22.7212 29.6599 22.7857 29.7247C22.8503 29.7894 22.9269 29.8407 23.0113 29.8758C23.0957 29.9108 23.1862 29.9288 23.2776 29.9288L28.1395 29.9423C28.3237 29.9423 28.5003 29.8691 28.6306 29.7389C28.7608 29.6086 28.834 29.432 28.834 29.2478V22.1298L20.8335 15.5438C20.7395 15.468 20.6223 15.4267 20.5015 15.4267C20.3807 15.4267 20.2635 15.468 20.1695 15.5438ZM32.8097 20.0234L29.1812 17.0326V11.0208C29.1812 10.8827 29.1263 10.7502 29.0287 10.6525C28.931 10.5549 28.7985 10.5 28.6604 10.5H26.2298C26.0917 10.5 25.9592 10.5549 25.8615 10.6525C25.7639 10.7502 25.709 10.8827 25.709 11.0208V14.1723L21.8231 10.9753C21.4502 10.6684 20.9823 10.5006 20.4993 10.5006C20.0164 10.5006 19.5485 10.6684 19.1756 10.9753L8.18902 20.0234C8.13628 20.067 8.09264 20.1206 8.06061 20.181C8.02858 20.2415 8.00877 20.3077 8.00232 20.3758C7.99587 20.4439 8.00291 20.5126 8.02302 20.578C8.04314 20.6434 8.07595 20.7042 8.11957 20.7569L9.22634 22.1024C9.26985 22.1553 9.32336 22.1991 9.38381 22.2313C9.44426 22.2635 9.51047 22.2835 9.57864 22.29C9.64681 22.2966 9.71561 22.2897 9.7811 22.2696C9.84659 22.2496 9.90748 22.2168 9.96029 22.1732L20.1695 13.7643C20.2635 13.6885 20.3807 13.6472 20.5015 13.6472C20.6223 13.6472 20.7395 13.6885 20.8335 13.7643L31.0432 22.1732C31.0959 22.2168 31.1567 22.2496 31.2221 22.2697C31.2875 22.2898 31.3562 22.2969 31.4243 22.2904C31.4924 22.284 31.5586 22.2642 31.6191 22.2321C31.6795 22.2001 31.7331 22.1565 31.7767 22.1037L32.8835 20.7582C32.927 20.7052 32.9597 20.6441 32.9796 20.5784C32.9995 20.5128 33.0062 20.4438 32.9993 20.3755C32.9925 20.3072 32.9722 20.241 32.9396 20.1805C32.9071 20.1201 32.8629 20.0667 32.8097 20.0234Z" fill="#1C6BA4"/>
</g>
<path d="M37.1048 25.5V15.3182H38.9493V19.6286H43.6673V15.3182H45.5168V25.5H43.6673V21.1747H38.9493V25.5H37.1048ZM50.7742 25.6491C50.0285 25.6491 49.3822 25.4851 48.8353 25.157C48.2884 24.8288 47.8642 24.3698 47.5626 23.7798C47.2643 23.1899 47.1151 22.5005 47.1151 21.7116C47.1151 20.9228 47.2643 20.2318 47.5626 19.6385C47.8642 19.0452 48.2884 18.5845 48.8353 18.2564C49.3822 17.9283 50.0285 17.7642 50.7742 17.7642C51.52 17.7642 52.1663 17.9283 52.7132 18.2564C53.26 18.5845 53.6826 19.0452 53.9809 19.6385C54.2825 20.2318 54.4333 20.9228 54.4333 21.7116C54.4333 22.5005 54.2825 23.1899 53.9809 23.7798C53.6826 24.3698 53.26 24.8288 52.7132 25.157C52.1663 25.4851 51.52 25.6491 50.7742 25.6491ZM50.7842 24.2074C51.1885 24.2074 51.5266 24.0964 51.7984 23.8743C52.0702 23.6489 52.2723 23.3473 52.4049 22.9695C52.5408 22.5916 52.6088 22.1707 52.6088 21.7067C52.6088 21.2393 52.5408 20.8168 52.4049 20.4389C52.2723 20.0578 52.0702 19.7545 51.7984 19.5291C51.5266 19.3037 51.1885 19.1911 50.7842 19.1911C50.3699 19.1911 50.0252 19.3037 49.7501 19.5291C49.4783 19.7545 49.2745 20.0578 49.1386 20.4389C49.006 20.8168 48.9397 21.2393 48.9397 21.7067C48.9397 22.1707 49.006 22.5916 49.1386 22.9695C49.2745 23.3473 49.4783 23.6489 49.7501 23.8743C50.0252 24.0964 50.3699 24.2074 50.7842 24.2074ZM55.9608 25.5V17.8636H57.681V19.1612H57.7705C57.9296 18.7237 58.1931 18.3823 58.561 18.1371C58.9289 17.8885 59.368 17.7642 59.8785 17.7642C60.3955 17.7642 60.8314 17.8902 61.186 18.142C61.5439 18.3906 61.7958 18.7304 61.9417 19.1612H62.0212C62.1903 18.737 62.4753 18.3989 62.8763 18.147C63.2807 17.8918 63.7596 17.7642 64.3131 17.7642C65.0158 17.7642 65.5892 17.9863 66.0333 18.4304C66.4774 18.8745 66.6995 19.5225 66.6995 20.3743V25.5H64.8948V20.6527C64.8948 20.1787 64.7689 19.8324 64.517 19.6136C64.2651 19.3916 63.9568 19.2805 63.5922 19.2805C63.1581 19.2805 62.8183 19.4164 62.5731 19.6882C62.3311 19.9567 62.2101 20.3063 62.2101 20.7372V25.5H60.4452V20.5781C60.4452 20.1837 60.3259 19.8688 60.0873 19.6335C59.8519 19.3982 59.5437 19.2805 59.1626 19.2805C58.904 19.2805 58.6687 19.3468 58.4566 19.4794C58.2445 19.6087 58.0754 19.7926 57.9495 20.0312C57.8235 20.2666 57.7606 20.5417 57.7606 20.8565V25.5H55.9608ZM71.906 25.6491C71.1404 25.6491 70.4791 25.4901 69.9223 25.1719C69.3688 24.8504 68.9429 24.3963 68.6446 23.8097C68.3463 23.2197 68.1972 22.5253 68.1972 21.7266C68.1972 20.9411 68.3463 20.2517 68.6446 19.6584C68.9462 19.0618 69.3672 18.5978 69.9074 18.2663C70.4477 17.9316 71.0824 17.7642 71.8115 17.7642C72.2822 17.7642 72.7263 17.8404 73.1439 17.9929C73.5648 18.142 73.9361 18.3741 74.2575 18.6889C74.5824 19.0038 74.8376 19.4048 75.0232 19.892C75.2088 20.3759 75.3016 20.9527 75.3016 21.6222V22.174H69.0423V20.9609H73.5764C73.5731 20.6162 73.4986 20.3097 73.3527 20.0412C73.2069 19.7694 73.003 19.5556 72.7412 19.3999C72.4827 19.2441 72.1811 19.1662 71.8364 19.1662C71.4685 19.1662 71.1453 19.2557 70.8669 19.4347C70.5885 19.6103 70.3714 19.8423 70.2156 20.1307C70.0632 20.4157 69.9853 20.7289 69.982 21.0703V22.1293C69.982 22.5734 70.0632 22.9545 70.2256 23.2727C70.388 23.5876 70.615 23.8295 70.9067 23.9986C71.1984 24.1643 71.5397 24.2472 71.9308 24.2472C72.1927 24.2472 72.4297 24.2107 72.6418 24.1378C72.8539 24.0616 73.0378 23.9505 73.1936 23.8047C73.3494 23.6589 73.4671 23.4782 73.5466 23.2628L75.227 23.4517C75.1209 23.8958 74.9188 24.2836 74.6205 24.6151C74.3255 24.9432 73.9477 25.1984 73.4869 25.3807C73.0262 25.5597 72.4993 25.6491 71.906 25.6491Z" fill="#1C6BA4"/>
</g>
<defs>
<filter id="filter0_d_488_459" x="0" y="0.5" width="92" height="42" filterUnits="userSpaceOnUse" color-interpolation-filters="sRGB">
<feFlood flood-opacity="0" result="BackgroundImageFix"/>
<feColorMatrix in="SourceAlpha" type="matrix" values="0 0 0 0 0 0 0 0 0 0 0 0 0 0 0 0 0 0 127 0" result="hardAlpha"/>
<feOffset dy="2"/>
<feComposite in2="hardAlpha" operator="out"/>
<feColorMatrix type="matrix" values="0 0 0 0 0.552941 0 0 0 0 0.709804 0 0 0 0 0.819608 0 0 0 1 0"/>
<feBlend mode="normal" in2="BackgroundImageFix" result="effect1_dropShadow_488_459"/>
<feBlend mode="normal" in="SourceGraphic" in2="effect1_dropShadow_488_459" result="shape"/>
</filter>
<clipPath id="clip0_488_459">
<rect width="24" height="24" fill="white" transform="translate(8 8.5)"/>
</clipPath>
</defs>
</svg>
