<svg width="25" height="25" viewBox="0 0 25 25" fill="none" xmlns="http://www.w3.org/2000/svg">
<g clip-path="url(#clip0_488_465)">
<path d="M17.8333 9.92857C17.8333 6.37679 13.9542 3.5 9.16667 3.5C4.37917 3.5 0.5 6.37679 0.5 9.92857C0.5 11.3067 1.0875 12.5763 2.08333 13.625C1.525 14.8384 0.604167 15.8027 0.591667 15.8147C0.5 15.9071 0.475 16.0437 0.529167 16.1643C0.583333 16.2848 0.7 16.3571 0.833333 16.3571C2.35833 16.3571 3.62083 15.8629 4.52917 15.3527C5.87083 15.9835 7.45833 16.3571 9.16667 16.3571C13.9542 16.3571 17.8333 13.4804 17.8333 9.92857ZM22.9167 18.7679C23.9125 17.7232 24.5 16.4496 24.5 15.0714C24.5 12.3835 22.2708 10.0812 19.1125 9.12098C19.15 9.38616 19.1667 9.65536 19.1667 9.92857C19.1667 14.1835 14.6792 17.6429 9.16667 17.6429C8.71667 17.6429 8.27917 17.6107 7.84583 17.5665C9.15833 19.8768 12.2417 21.5 15.8333 21.5C17.5417 21.5 19.1292 21.1304 20.4708 20.4955C21.3792 21.0058 22.6417 21.5 24.1667 21.5C24.3 21.5 24.4208 21.4237 24.4708 21.3071C24.525 21.1906 24.5 21.054 24.4083 20.9576C24.3958 20.9455 23.475 19.9853 22.9167 18.7679Z" fill="white" fill-opacity="0.5"/>
</g>
<defs>
<clipPath id="clip0_488_465">
<rect width="24" height="24" fill="white" transform="translate(0.5 0.5)"/>
</clipPath>
</defs>
</svg>
